<svg width="506" height="260" viewBox="0 0 506 260" fill="none" xmlns="http://www.w3.org/2000/svg">
<path d="M82.1723 103.081C82.0297 103.081 82.0297 103.081 81.887 103.081C75.4676 100.656 71.616 98.2311 69.6188 95.2353C68.1923 95.5206 66.4804 95.378 65.0539 94.6647C63.6274 93.9515 62.0582 92.6676 61.0596 90.9557C60.061 91.669 58.9198 91.9543 57.6359 91.5263C56.2094 91.0984 54.6402 89.8145 53.3563 88.1027C52.5004 88.6733 51.7871 88.8159 51.0739 88.6733C46.7943 88.388 41.0881 79.8288 40.6602 70.8416C40.6602 70.4136 40.9455 70.1283 41.3734 70.1283C41.8014 70.1283 42.0867 70.4136 42.0867 70.8416C42.5147 79.4008 47.9355 86.9614 51.2165 87.2467C51.7871 87.2467 52.2151 87.1041 52.5004 86.8188C50.5033 83.3951 49.5047 78.5449 51.0739 73.4094C52.3577 69.1298 53.3563 67.4179 54.6402 67.7032C57.0653 68.2738 56.78 77.689 55.4961 83.8231C55.2108 85.2496 54.7829 86.2482 54.3549 86.9614C55.4961 88.6733 56.78 89.6719 57.9212 90.0998C58.9198 90.3851 59.7757 90.0998 60.3463 89.6718C59.2051 86.9614 59.0625 83.1098 60.489 78.4022C62.4861 72.1255 63.3421 71.9828 63.77 71.8402C64.0553 71.6975 64.4833 71.8402 64.626 72.1255C65.9098 73.552 64.3406 83.3951 62.7715 88.2453C62.4861 88.8159 62.3435 89.3865 61.9155 89.9572C62.7715 91.669 64.0553 92.8102 65.4819 93.5235C66.6231 94.0941 67.7643 94.2368 68.7629 94.0941C68.6203 93.8088 68.4776 93.5235 68.4776 93.2382C67.3364 90.2425 67.907 86.6761 70.1894 82.3965C71.7586 79.5435 72.8999 78.2596 74.0411 78.2596C74.3264 78.2596 75.0397 78.4022 75.4676 79.2581C76.7515 81.5406 75.7529 89.1012 73.3278 92.9529C72.7572 93.8088 71.9013 94.5221 71.0454 94.95C72.8999 97.5178 76.6089 99.6576 82.315 101.94C82.743 102.083 82.8856 102.511 82.743 102.796C82.743 102.939 82.4576 103.081 82.1723 103.081ZM74.0411 79.6861C74.0411 79.6861 73.1852 79.6861 71.4733 82.9671C69.4762 86.8188 68.9056 89.9572 69.9041 92.6676C70.0468 92.9529 70.1894 93.3808 70.3321 93.6661C71.0454 93.3808 71.7586 92.8102 72.1866 92.097C74.1837 89.1012 75.1823 82.8245 74.3264 80.2567C74.1837 79.6861 74.0411 79.6861 74.0411 79.6861ZM63.9127 73.552C63.4847 74.2653 62.9141 75.6918 62.0582 78.5449C60.7743 82.3965 60.7743 85.5349 61.4876 87.8174C61.4876 87.6747 61.6302 87.532 61.6302 87.3894C63.1994 82.6818 64.0553 75.9771 63.9127 73.552ZM54.4976 69.1298C54.2122 69.4151 53.499 70.271 52.5004 73.6947C51.2165 78.2596 51.9298 82.3965 53.499 85.3922C53.7843 84.8216 54.0696 84.1084 54.2122 83.3951C55.6388 76.4051 55.2108 70.1283 54.4976 69.1298Z" fill="#263238"/>
<path d="M136.382 177.832C134.242 177.832 131.96 177.404 129.82 176.12C129.534 175.978 129.392 175.55 129.534 175.122C129.677 174.836 130.105 174.694 130.533 174.836C135.669 177.832 142.231 175.692 143.515 173.553C143.657 173.267 143.8 172.982 143.657 172.554C141.66 172.697 139.235 172.269 136.382 170.414C132.816 168.132 132.53 167.418 132.53 166.99C132.53 166.705 132.673 166.42 132.958 166.277C134.385 165.564 140.804 168.56 143.515 170.272C143.8 170.557 144.228 170.699 144.37 170.985C145.512 170.699 146.51 170.129 147.081 169.416C147.509 168.845 147.794 168.417 147.937 167.846C147.794 167.846 147.794 167.846 147.651 167.846C145.369 168.132 143.087 167.133 140.661 164.851C138.95 163.281 138.379 162.283 138.522 161.427C138.522 161.142 138.807 160.714 139.52 160.428C141.517 160 146.368 161.998 148.365 164.137C148.793 164.565 149.078 165.136 149.221 165.849C151.075 164.993 153.072 162.996 155.355 159.715C155.64 159.43 156.068 159.287 156.353 159.573C156.639 159.858 156.781 160.286 156.496 160.571C153.786 164.28 151.503 166.42 149.363 167.276C149.221 168.274 148.793 169.273 148.079 170.129C147.366 170.985 146.368 171.698 144.941 172.126C145.084 172.839 144.941 173.41 144.513 174.123C143.657 176.406 140.233 177.832 136.382 177.832ZM135.098 167.989C135.526 168.274 136.239 168.845 137.238 169.416C139.235 170.557 140.947 171.127 142.373 171.27C140.091 169.844 136.952 168.56 135.098 167.989ZM140.091 161.998C140.234 162.283 140.519 162.854 141.803 163.995C143.942 165.992 145.797 166.848 147.651 166.563C147.794 166.563 147.937 166.563 148.079 166.563C147.937 166.135 147.794 165.707 147.509 165.421C145.512 163.139 141.089 161.712 140.091 161.998Z" fill="#263238"/>
<path d="M155.211 175.978L132.957 179.972L112.843 69.8438L69.9041 77.6897L0.00390625 201.798L7.56455 242.74L97.151 226.477L103.285 260.001L146.224 252.155L140.09 218.631L162.344 214.637L155.211 175.978ZM42.8 196.377L79.8899 131.327L90.1609 187.676L42.8 196.377Z" fill="#4BB4F7"/>
<path d="M334.243 62.2822C333.387 54.7216 331.96 47.8742 329.678 42.0254C327.538 36.1766 324.114 30.3278 319.692 24.6217C315.27 18.9155 309.278 14.0653 301.575 9.78571C293.872 5.64876 283.886 2.65303 271.332 1.08384C245.227 -2.33984 224.827 2.36772 210.277 14.9212C195.726 27.6174 186.026 51.8685 181.461 87.6745C179.606 102.225 179.178 115.777 180.034 128.045C181.033 140.456 183.315 150.442 186.882 157.86C191.874 168.416 198.722 176.833 207.709 183.252C216.696 189.529 229.107 193.809 244.656 195.806C272.616 199.515 293.301 194.094 306.853 179.686C320.263 165.278 329.25 141.027 333.672 106.79C335.812 91.8115 335.954 76.8329 334.243 62.2822Z" fill="#4BB4F7"/>
<path d="M257.779 181.398C254.355 181.256 250.646 180.97 246.937 180.542C233.813 178.831 223.828 175.55 216.837 170.699C209.99 165.992 204.997 159.715 201.146 151.584V151.441C198.435 145.735 196.581 137.461 195.867 127.19C195.011 115.92 195.439 103.367 197.151 89.9575C202.287 50.4425 212.701 33.8947 220.689 27.0473C229.962 19.0587 242.372 15.3497 258.778 15.9203C262.201 16.063 265.768 16.3483 269.334 16.7763C279.89 18.2028 288.164 20.4853 294.156 23.7663C299.862 26.9047 304.284 30.471 307.422 34.4653C310.846 38.8876 313.414 43.3098 315.126 47.7321C316.838 52.4397 318.121 58.0031 318.835 64.2799C320.404 77.5467 320.261 91.3841 318.407 105.221C314.412 135.892 306.852 157.575 295.725 169.416C287.308 177.975 274.897 181.969 257.779 181.398Z" fill="#263238"/>
<path d="M285.597 62.7097L285.739 57.2889L282.458 56.1477C282.315 54.2932 282.03 52.4387 281.602 50.7268L284.455 48.587L282.601 43.4515L279.177 43.7368C278.321 42.025 277.323 40.5984 276.324 39.0293L278.179 36.0335L274.47 32.0392L271.331 33.6084C269.905 32.4672 268.478 31.326 266.909 30.3274L267.48 26.9037L262.487 24.6212L260.204 27.3317C258.492 26.7611 256.638 26.3331 254.783 26.0478L253.927 22.6241L248.507 22.4814L247.365 25.7625C245.511 25.9051 243.656 26.1904 241.945 26.6184L239.805 23.7653L234.669 25.6198L234.955 29.0435C233.243 29.8994 231.816 30.898 230.247 31.8966L227.251 30.0421L223.257 33.7511L224.826 36.8894C223.685 38.316 222.544 39.7425 221.688 41.3117L218.264 40.7411L215.982 45.734L218.692 48.0164C218.121 49.7283 217.693 51.5828 217.408 53.4373L213.984 54.2932L213.842 59.714L217.123 60.8552C217.265 62.7097 217.551 64.5642 217.979 66.2761L215.126 68.4159L216.98 73.5514L220.404 73.2661C221.26 74.9779 222.258 76.4045 223.257 77.9737L221.402 80.9694L225.111 84.9637L228.25 83.3945C229.676 84.5357 231.103 85.677 232.672 86.6755L232.101 90.0992L237.094 92.3817L239.377 89.6713C241.089 90.2419 242.943 90.6698 244.798 90.9551L245.654 94.3788L251.074 94.5215L252.216 91.2404C254.07 91.0978 255.925 90.8125 257.636 90.3845L259.776 93.2376L264.912 91.3831L264.626 87.9594C266.338 87.1035 267.765 86.1049 269.334 85.1063L272.33 86.9608L276.324 83.2518L274.755 80.1135C275.896 78.6869 277.037 77.2604 277.893 75.6912L281.317 76.2618L283.599 71.269L280.889 68.9865C281.46 67.2747 281.888 65.4202 282.173 63.5657L285.597 62.7097ZM249.077 80.2561C237.237 79.8282 227.964 69.9851 228.392 58.1448C228.82 46.3046 238.664 37.0321 250.504 37.4601C262.344 37.888 271.616 47.7311 271.189 59.5714C270.903 71.4116 260.917 80.6841 249.077 80.2561Z" fill="#4BB4F7"/>
<path opacity="0.3" d="M308.135 161.997L308.563 158.288L306.423 157.432C306.423 156.148 306.281 155.007 306.138 153.723L308.135 152.439L307.136 148.873H304.711C304.283 147.731 303.713 146.59 302.999 145.592L304.283 143.594L302.001 140.741L299.861 141.597C299.005 140.741 298.007 139.885 297.008 139.172L297.579 136.89L294.298 135.178L292.586 136.89C291.445 136.462 290.303 136.034 289.019 135.748L288.591 133.466L284.882 133.038L284.027 135.178C282.743 135.178 281.601 135.321 280.318 135.463L279.034 133.466L275.467 134.465V136.89C274.326 137.318 273.185 137.888 272.186 138.602L270.189 137.175L267.336 139.457L268.192 141.597C267.336 142.453 266.48 143.452 265.767 144.45L263.484 143.88L261.773 147.161L263.484 148.873C263.056 150.014 262.629 151.155 262.343 152.439L260.061 152.867L259.633 156.576L261.773 157.432C261.773 158.716 261.915 159.857 262.058 161.141L260.061 162.425L261.059 165.991H263.484C263.912 167.132 264.483 168.273 265.196 169.272L263.77 171.269L266.052 174.122L268.192 173.266C269.048 174.122 270.047 174.978 271.045 175.691L270.474 177.974L273.756 179.686L275.467 177.974C276.609 178.402 277.75 178.83 279.034 179.115L279.462 181.398L283.171 181.826L284.027 179.686C285.31 179.686 286.452 179.543 287.736 179.4L289.019 181.398L292.586 180.399V177.974C293.727 177.546 294.868 176.975 295.867 176.262L297.721 177.689L300.574 175.406L299.718 173.266C300.574 172.41 301.43 171.412 302.144 170.413L304.426 170.984L306.138 167.703L304.426 165.991C304.854 164.85 305.282 163.709 305.567 162.425L308.135 161.997ZM289.733 160.57C288.021 163.709 284.169 164.85 281.031 163.138C277.892 161.426 276.894 157.574 278.463 154.436C280.175 151.298 284.027 150.299 287.165 151.868C290.303 153.723 291.445 157.574 289.733 160.57Z" fill="#4BB4F7"/>
<path d="M328.393 100.371L324.113 97.3754C323.685 95.8062 323.114 94.3797 322.401 92.9532L323.542 88.6735L317.408 82.1115L313.129 82.9674C311.845 82.1115 310.276 81.5409 308.849 80.9703L306.139 76.548L297.151 76.2627L294.156 80.5423C292.586 80.9703 291.16 81.5409 289.733 82.2541L285.454 81.1129L278.892 87.247L279.748 91.5266C278.892 92.9532 278.321 94.3797 277.751 95.8062L273.328 98.374L273.043 107.361L277.323 110.357C277.751 111.926 278.321 113.353 279.034 114.779L277.893 119.059L284.027 125.621L288.307 124.765C289.733 125.621 291.16 126.191 292.587 126.762L295.154 131.184L304.141 131.47L307.137 127.19C308.706 126.762 310.133 126.191 311.559 125.478L315.839 126.619L322.401 120.485L321.545 116.206C322.401 114.779 322.972 113.353 323.542 111.926L327.965 109.216L328.393 100.371ZM300.29 114.066C294.726 113.923 290.304 109.216 290.447 103.51C290.589 97.946 295.297 93.5238 301.003 93.6664C306.567 93.8091 310.989 98.5166 310.846 104.223C310.561 109.929 305.853 114.351 300.29 114.066Z" fill="white"/>
<path d="M359.349 28.3303L360.063 26.4758C360.633 26.1905 361.061 25.9052 361.489 25.4772H363.201L365.198 22.6241L364.628 21.0549C364.77 20.4843 364.913 19.9137 365.055 19.3431L366.482 18.0592L365.911 14.7782L364.057 14.0649C363.772 13.4943 363.486 13.0663 363.058 12.6384V10.9265L360.205 8.92939L358.636 9.5C358.065 9.35735 357.495 9.2147 356.924 9.07204L355.64 7.64551L352.359 8.21612L351.646 10.0706C351.075 10.3559 350.647 10.6412 350.077 11.0692H348.365L346.368 13.9223L346.938 15.4915C346.796 16.0621 346.653 16.6327 346.511 17.2033L345.084 18.4872L345.655 21.7682L347.509 22.4815C347.794 23.0521 348.08 23.48 348.508 24.0507V25.7625L351.361 27.7597L352.93 27.189C353.501 27.3317 354.071 27.4743 354.642 27.617L355.926 29.0435L359.349 28.3303ZM352.217 19.0578C351.789 16.918 353.215 15.0635 355.355 14.6355C357.495 14.2076 359.349 15.6341 359.777 17.7739C360.205 19.9137 358.779 21.7682 356.639 22.1962C354.499 22.4815 352.502 21.0549 352.217 19.0578Z" fill="#4BB4F7"/>
<path d="M320.262 18.7728L319.121 17.9169C320.976 15.6344 323.686 12.7813 327.68 10.7842L328.394 12.0681C324.114 14.2079 321.404 17.4889 320.262 18.7728Z" fill="#4BB4F7"/>
<path d="M331.676 10.6419L331.105 9.35803C336.526 7.07558 342.09 6.077 347.796 6.64762L347.653 8.07415C342.232 7.64619 336.812 8.50211 331.676 10.6419Z" fill="#4BB4F7"/>
<path d="M328.964 20.6273L327.822 19.7714C330.818 15.4918 336.524 11.7828 341.945 10.6416L342.23 12.0681C337.095 13.0667 331.674 16.633 328.964 20.6273Z" fill="#4BB4F7"/>
<path d="M234.241 157.86C234.098 157.86 233.813 157.717 233.67 157.575L230.674 154.436C229.105 154.294 227.679 154.008 226.252 153.58L221.544 155.578C221.259 155.72 221.116 155.72 220.831 155.578L212.985 150.442C212.843 150.299 212.7 150.014 212.7 149.871L212.843 144.736C211.844 143.595 210.988 142.311 210.275 140.884L206.28 139.315C205.995 139.172 205.853 139.03 205.853 138.745L203.998 129.615C203.998 129.329 203.998 129.187 204.141 128.901L207.279 125.906C207.422 124.337 207.707 122.91 208.135 121.483L206.138 116.776C205.995 116.491 205.995 116.348 206.138 116.063L211.273 108.217C211.416 108.074 211.559 107.931 211.844 107.931L216.98 108.074C218.121 107.075 219.405 106.22 220.831 105.506L222.4 101.512C222.543 101.227 222.686 101.084 222.971 101.084L232.101 99.2295C232.386 99.2295 232.529 99.2295 232.814 99.3721L235.81 102.511C237.379 102.653 238.806 102.938 240.375 103.366L245.082 101.369C245.368 101.227 245.51 101.227 245.796 101.369L253.641 106.505C253.784 106.647 253.927 106.933 253.927 107.075L253.784 112.211C254.783 113.352 255.639 114.636 256.352 116.063L260.346 117.632C260.631 117.774 260.774 117.917 260.774 118.202L262.629 127.332C262.629 127.618 262.629 127.76 262.486 128.046L259.348 131.041C259.205 132.61 258.92 134.037 258.492 135.463L260.489 140.171C260.631 140.456 260.631 140.599 260.489 140.884L255.353 148.73C255.211 148.873 255.068 149.016 254.783 149.016L249.647 148.873C248.506 149.871 247.222 150.727 245.796 151.441L244.226 155.435C244.084 155.72 243.941 155.863 243.656 155.863L234.241 157.86C234.383 157.86 234.383 157.86 234.241 157.86ZM226.252 152.297H226.395C227.964 152.725 229.533 153.01 231.102 153.153C231.245 153.153 231.388 153.295 231.53 153.438L234.383 156.434L242.8 154.722L244.369 150.87C244.369 150.727 244.512 150.585 244.654 150.442C246.081 149.729 247.507 148.873 248.649 147.732C248.791 147.589 248.934 147.589 249.077 147.589L254.069 147.732L258.777 140.599L256.78 136.034C256.78 135.891 256.637 135.749 256.78 135.606C257.208 134.037 257.493 132.468 257.636 130.899C257.636 130.756 257.778 130.613 257.778 130.471L260.774 127.618L259.062 119.201L255.211 117.632C255.068 117.632 254.925 117.489 254.783 117.346C254.069 115.92 253.214 114.636 252.072 113.352C251.93 113.21 251.93 113.067 251.93 112.924L252.072 107.931L244.94 103.224L240.375 105.221C240.232 105.221 240.089 105.364 239.947 105.221C238.378 104.793 236.808 104.508 235.239 104.365C235.097 104.365 234.954 104.222 234.811 104.222L231.958 101.227L223.542 102.938L221.972 106.79C221.972 106.933 221.83 107.075 221.687 107.218C220.261 107.931 218.977 108.787 217.693 109.929C217.55 110.071 217.407 110.071 217.265 110.071L212.272 109.929L207.564 117.061L209.562 121.626C209.704 121.769 209.704 122.054 209.562 122.197C209.134 123.623 208.848 125.192 208.706 126.762C208.706 126.904 208.563 127.047 208.563 127.19L205.567 130.043L207.279 138.459L211.131 140.028C211.273 140.028 211.416 140.171 211.559 140.456C212.272 141.883 213.128 143.167 214.126 144.451C214.269 144.593 214.269 144.736 214.269 144.879L214.126 149.871L221.259 154.579L225.824 152.582C226.109 152.297 226.109 152.297 226.252 152.297ZM233.242 147.589C229.676 147.589 225.967 146.59 222.828 144.451C218.549 141.598 215.696 137.318 214.697 132.325C213.698 127.332 214.697 122.339 217.407 118.06C223.256 109.358 235.097 106.933 243.798 112.639C252.5 118.488 254.925 130.185 249.077 139.03C245.51 144.593 239.376 147.589 233.242 147.589ZM218.691 118.916C216.124 122.767 215.125 127.475 216.124 132.182C217.122 136.747 219.69 140.742 223.684 143.309C231.815 148.73 242.657 146.448 248.078 138.317C253.499 130.185 251.216 119.344 243.085 113.923C234.954 108.645 223.97 110.784 218.691 118.916Z" fill="white"/>
<path d="M505.995 188.815L483.599 185.82L498.435 74.8351L455.211 68.9863L350.36 165.42L344.797 206.647L435.097 218.773L430.532 252.581L473.756 258.43L478.321 224.621L500.717 227.617L505.995 188.815ZM392.728 173.551L448.078 123.195L440.517 179.971L392.728 173.551Z" fill="#4BB4F7"/>
<path d="M460.774 257.432C460.203 257.289 460.061 257.004 460.061 256.576L493.441 74.1224C493.441 73.6944 493.869 73.5518 494.297 73.5518C494.725 73.5518 495.011 73.9797 494.868 74.4077L461.63 256.862C461.487 257.147 461.202 257.432 460.774 257.432Z" fill="#263238"/>
<path d="M490.304 77.1188C490.304 77.832 489.733 78.26 489.163 78.26C488.592 78.26 488.021 77.6894 488.021 77.1188C488.021 76.5482 488.592 75.9775 489.163 75.9775C489.876 75.9775 490.304 76.5482 490.304 77.1188Z" fill="#263238"/>
<path d="M485.597 101.797C485.597 102.511 485.026 102.939 484.456 102.939C483.742 102.939 483.314 102.368 483.314 101.797C483.314 101.084 483.885 100.656 484.456 100.656C485.169 100.656 485.597 101.227 485.597 101.797Z" fill="#263238"/>
<path d="M480.89 126.476C480.89 127.189 480.319 127.617 479.749 127.617C479.035 127.617 478.607 127.047 478.607 126.476C478.607 125.763 479.178 125.335 479.749 125.335C480.319 125.335 480.89 125.906 480.89 126.476Z" fill="#263238"/>
<path d="M471.474 152.154C471.474 152.867 470.903 153.295 470.333 153.295C469.762 153.295 469.191 152.725 469.191 152.154C469.191 151.441 469.762 151.013 470.333 151.013C470.903 151.013 471.474 151.583 471.474 152.154Z" fill="#263238"/>
<path d="M471.331 175.836C471.331 176.549 470.761 176.977 470.19 176.977C469.619 176.977 469.049 176.406 469.049 175.836C469.049 175.265 469.619 174.694 470.19 174.694C470.761 174.694 471.331 175.265 471.331 175.836Z" fill="#263238"/>
<path d="M466.624 200.514C466.624 201.228 466.054 201.655 465.483 201.655C464.912 201.655 464.342 201.085 464.342 200.514C464.342 199.801 464.912 199.373 465.483 199.373C466.054 199.373 466.624 199.944 466.624 200.514Z" fill="#263238"/>
<path d="M461.773 225.193C461.773 225.906 461.202 226.334 460.631 226.334C459.918 226.334 459.49 225.764 459.49 225.193C459.49 224.48 460.061 224.052 460.631 224.052C461.345 224.052 461.915 224.622 461.773 225.193Z" fill="#263238"/>
<path d="M457.066 249.872C457.066 250.585 456.495 251.013 455.924 251.013C455.211 251.013 454.783 250.442 454.783 249.872C454.783 249.301 455.354 248.73 455.924 248.73C456.638 248.73 457.066 249.301 457.066 249.872Z" fill="#263238"/>
<path d="M470.332 152.867C470.047 152.867 469.762 152.582 469.619 152.297C469.476 151.869 469.762 151.583 470.19 151.441L473.756 150.728C474.184 150.585 474.469 150.87 474.612 151.298C474.755 151.726 474.469 152.011 474.041 152.154L470.475 152.867H470.332Z" fill="#263238"/>
<path d="M482.173 139.742C482.173 139.742 479.034 148.016 477.893 153.152C476.752 158.144 476.752 169.414 476.752 169.414" fill="#263238"/>
<path d="M476.752 170.127C476.324 170.127 476.039 169.842 476.039 169.414C476.039 168.986 476.182 158.002 477.18 153.009C478.322 148.016 481.317 139.885 481.46 139.6C481.603 139.172 482.031 139.029 482.316 139.172C482.744 139.314 482.886 139.742 482.744 140.028C482.744 140.17 479.605 148.301 478.464 153.294C477.466 158.145 477.323 169.272 477.323 169.414C477.466 169.842 477.18 170.127 476.752 170.127Z" fill="#263238"/>
</svg>
