<svg width="18" height="18" viewBox="0 0 18 18" fill="none" xmlns="http://www.w3.org/2000/svg">
<path d="M9.46129 2.90061C9.8901 2.39733 10.6153 2.02419 11.2134 2C11.2898 2.69714 11.0088 3.39621 10.5942 3.8991C10.178 4.40161 9.49738 4.7928 8.82903 4.74097C8.7392 4.05842 9.07587 3.34592 9.46129 2.90061ZM12.8652 12.4207C12.3689 13.1459 11.8545 13.8683 11.0441 13.8829C10.2471 13.8979 9.99068 13.4107 9.08047 13.4107C8.1695 13.4107 7.88466 13.8687 7.13031 13.8983C6.34833 13.9275 5.75253 13.1163 5.25233 12.3934C4.22926 10.9162 3.44881 8.21863 4.49837 6.39746C5.01815 5.49224 5.94947 4.92102 6.95948 4.90528C7.7288 4.89107 8.45397 5.42353 8.92308 5.42353C9.39334 5.42353 10.2748 4.78397 11.2018 4.8784C11.5896 4.89414 12.6783 5.03426 13.3777 6.05733C13.3217 6.09265 12.0775 6.81628 12.0925 8.32305C12.109 10.1231 13.6714 10.7208 13.6895 10.73C13.6749 10.7707 13.4388 11.5827 12.8652 12.4207Z" fill="white"/>
</svg>
