<svg width="60" height="60" viewBox="0 0 60 60" fill="none" xmlns="http://www.w3.org/2000/svg">
<rect width="60" height="60" rx="8" fill="#F87B99"/>
<path d="M38.154 20.6458C35.4972 20.079 32.7625 20.079 30.1058 20.6458C27.0424 21.2994 24.8359 24.1844 24.8359 27.5362V42.1705C24.8359 44.7388 27.4339 46.3372 29.4991 45.0396L33.2603 42.6765C33.7974 42.3391 34.4623 42.3391 34.9994 42.6765L38.7606 45.0396C40.8259 46.3372 43.4238 44.7388 43.4238 42.1705V27.5362C43.4238 24.1844 41.2173 21.2994 38.154 20.6458Z" fill="white"/>
<path opacity="0.4" d="M18 36.4498V21.8155C18 18.4637 20.2065 15.5787 23.2698 14.9251C25.9266 14.3583 28.6613 14.3583 31.318 14.9251C34.3814 15.5787 36.5878 18.4637 36.5878 21.8155" stroke="white" stroke-width="2.34685" stroke-linecap="round" stroke-linejoin="round"/>
</svg>
