<svg width="168" height="36" viewBox="0 0 168 36" fill="none" xmlns="http://www.w3.org/2000/svg">
<path d="M26.9021 16.0453C26.4473 16.5029 26.099 17.0551 25.8821 17.6625C25.6651 18.2701 25.5848 18.918 25.6469 19.5601L25.6253 19.5385C25.6891 20.2944 25.5871 21.0549 25.3266 21.7674C25.0661 22.4797 24.6533 23.1266 24.117 23.663C23.5806 24.1993 22.9337 24.6122 22.2212 24.8726C21.5089 25.1331 20.7482 25.2351 19.9925 25.1713L20.0141 25.1929C19.11 25.1088 18.202 25.3055 17.4137 25.7563C16.6255 26.2071 15.9955 26.8901 15.6097 27.7121C15.2239 28.5341 15.1009 29.4549 15.2576 30.3494C15.4145 31.2438 15.8432 32.0681 16.4856 32.7098C17.128 33.3516 17.9526 33.7796 18.8471 33.9355C19.7417 34.0915 20.6624 33.9677 21.4841 33.5811C22.3057 33.1945 22.988 32.564 23.4382 31.7754C23.8883 30.9867 24.0842 30.0786 23.9993 29.1745L24.0221 29.1961C23.9582 28.4403 24.0601 27.6797 24.3206 26.9672C24.5812 26.2549 24.9941 25.608 25.5304 25.0716C26.0668 24.5353 26.7137 24.1224 27.426 23.862C28.1384 23.6015 28.899 23.4995 29.6549 23.5633L29.6321 23.5417C30.3706 23.6081 31.114 23.487 31.7933 23.1896C32.4725 22.8923 33.0658 22.4282 33.5179 21.8406C33.9701 21.2529 34.2667 20.5605 34.38 19.8278C34.4934 19.095 34.42 18.3455 34.1665 17.6485C33.9131 16.9517 33.4878 16.3301 32.9302 15.8413C32.3725 15.3525 31.7005 15.0125 30.9764 14.8526C30.2524 14.6928 29.4996 14.7182 28.788 14.9267C28.0764 15.1352 27.429 15.5199 26.9057 16.0453H26.9021Z" fill="#D1D8E6"/>
<path d="M18.0494 22.3639L18.0266 22.3423C18.669 22.407 19.3177 22.3281 19.926 22.1114C20.5341 21.8947 21.0866 21.5456 21.5433 21.0892C21.9999 20.6329 22.3496 20.0806 22.5667 19.4726C22.7839 18.8646 22.8632 18.216 22.799 17.5735L22.8218 17.5951C22.758 16.8392 22.86 16.0786 23.1204 15.3662C23.3809 14.6539 23.7938 14.007 24.3301 13.4706C24.8665 12.9343 25.5134 12.5214 26.2257 12.261C26.9382 12.0004 27.6987 11.8985 28.4546 11.9623L28.4318 11.9407C29.336 12.0256 30.2443 11.8295 31.0329 11.3792C31.8217 10.9289 32.4522 10.2462 32.8386 9.4244C33.225 8.60257 33.3485 7.68153 33.1922 6.78692C33.036 5.89231 32.6076 5.06769 31.9653 4.42552C31.3232 3.78337 30.4986 3.35492 29.604 3.19865C28.7094 3.04238 27.7884 3.16587 26.9665 3.55229C26.1446 3.93871 25.4621 4.56925 25.0117 5.3579C24.5613 6.14654 24.3653 7.0549 24.4502 7.95908L24.4286 7.93628C24.4926 8.69215 24.3908 9.45287 24.1304 10.1653C23.87 10.8778 23.4571 11.5248 22.9208 12.0613C22.3844 12.5976 21.7374 13.0105 21.0249 13.2709C20.3124 13.5313 19.5517 13.633 18.7958 13.5691L18.8174 13.5919C18.1751 13.5272 17.5262 13.606 16.9181 13.8228C16.3099 14.0394 15.7574 14.3886 15.3007 14.8449C14.844 15.3013 14.4944 15.8535 14.2772 16.4616C14.0601 17.0696 13.9808 17.7182 14.045 18.3607L14.0234 18.3391C14.087 19.0948 13.9849 19.8554 13.7244 20.5677C13.4637 21.2799 13.0509 21.9268 12.5147 22.4631C11.9783 22.9994 11.3315 23.4122 10.6192 23.6728C9.90693 23.9334 9.14639 24.0355 8.39061 23.9719L8.41221 23.9935C7.50804 23.9085 6.59967 24.1046 5.81102 24.555C5.02238 25.0053 4.39184 25.6879 4.00543 26.5098C3.61901 27.3316 3.4955 28.2526 3.65178 29.1472C3.80805 30.0418 4.2365 30.8665 4.87866 31.5086C5.52083 32.1508 6.34544 32.5792 7.24005 32.7355C8.13467 32.8917 9.0557 32.7682 9.87755 32.3818C10.6994 31.9954 11.382 31.365 11.8323 30.5763C12.2827 29.7876 12.4788 28.8793 12.3938 27.9751L12.4166 27.9967C12.3528 27.2408 12.4548 26.4802 12.7153 25.7678C12.9757 25.0555 13.3886 24.4086 13.9249 23.8722C14.4613 23.3359 15.1082 22.923 15.8205 22.6626C16.533 22.402 17.2935 22.3 18.0494 22.3639Z" fill="#D1D8E6"/>
<path d="M10.0083 19.9551C10.4631 19.4977 10.8113 18.9454 11.0281 18.3379C11.2448 17.7303 11.3248 17.0823 11.2623 16.4403L11.285 16.4619C11.2212 15.7059 11.3232 14.945 11.5838 14.2324C11.8445 13.5199 12.2575 12.8728 12.7942 12.3364C13.3308 11.8001 13.978 11.3873 14.6907 11.1269C15.4033 10.8666 16.1643 10.7649 16.9203 10.8291L16.8975 10.8075C17.8013 10.8922 18.7093 10.696 19.4976 10.2457C20.2859 9.79545 20.916 9.11297 21.3023 8.29139C21.6885 7.4698 21.8118 6.5491 21.6556 5.65483C21.4993 4.76055 21.0709 3.93625 20.4291 3.29432C19.7872 2.65239 18.9628 2.22409 18.0685 2.06782C17.1743 1.91155 16.2535 2.03493 15.432 2.42111C14.6104 2.8073 13.9279 3.4375 13.4777 4.22578C13.0273 5.01406 12.8311 5.92205 12.9159 6.82592L12.8943 6.80432C12.9581 7.56014 12.8561 8.32078 12.5956 9.03315C12.3351 9.74552 11.9223 10.3925 11.3859 10.9288C10.8496 11.4652 10.2026 11.878 9.49027 12.1384C8.77791 12.399 8.01727 12.501 7.26145 12.4371L7.28305 12.4587C6.54454 12.3925 5.80125 12.5138 5.12207 12.8113C4.44289 13.1088 3.84979 13.5729 3.39774 14.1607C2.94569 14.7483 2.64931 15.4407 2.53606 16.1734C2.42281 16.9063 2.49636 17.6558 2.74989 18.3525C3.00341 19.0494 3.42873 19.6708 3.9864 20.1595C4.54408 20.6482 5.21608 20.9882 5.94013 21.148C6.66418 21.3078 7.41685 21.2822 8.12842 21.0738C8.83997 20.8652 9.48737 20.4805 10.0106 19.9551H10.0083Z" fill="#D1D8E6"/>
<path d="M47.1797 7.98633H50.7437V25.3299H47.1797V7.98633Z" fill="#D1D8E6"/>
<path d="M52.7619 19.3899C52.757 18.1436 53.122 16.9237 53.8108 15.885C54.4996 14.8463 55.4812 14.0353 56.6313 13.5549C57.7814 13.0745 59.0481 12.9462 60.2711 13.1863C61.4942 13.4264 62.6184 14.024 63.5015 14.9036C64.3846 15.7831 64.9868 16.905 65.2318 18.1271C65.4768 19.3491 65.3536 20.6165 64.8778 21.7685C64.402 22.9203 63.595 23.9053 62.559 24.5982C61.523 25.2912 60.3047 25.6611 59.0583 25.6611C58.231 25.6706 57.4101 25.515 56.6435 25.2035C55.877 24.8919 55.1802 24.4308 54.594 23.847C54.0077 23.2631 53.5438 22.5681 53.2293 21.8029C52.9146 21.0377 52.7558 20.2173 52.7619 19.3899ZM61.7907 19.3899C61.7758 18.8527 61.6029 18.3318 61.2936 17.8922C60.9843 17.4528 60.5523 17.1141 60.0516 16.9189C59.5509 16.7235 59.0038 16.6801 58.4786 16.7941C57.9533 16.9081 57.4733 17.1743 57.0986 17.5596C56.7239 17.9448 56.471 18.432 56.3717 18.9602C56.2724 19.4883 56.3308 20.0341 56.54 20.5292C56.7491 21.0243 57.0995 21.4467 57.5474 21.7437C57.9953 22.0407 58.5209 22.1991 59.0583 22.1991C59.4263 22.209 59.7924 22.1424 60.1336 22.0037C60.4746 21.8649 60.7833 21.6571 61.04 21.3932C61.2966 21.1292 61.496 20.8149 61.6251 20.4702C61.7543 20.1254 61.8107 19.7576 61.7907 19.3899Z" fill="#D1D8E6"/>
<path d="M79.5587 13.451V24.731C79.5587 28.7222 76.4459 30.4094 73.2863 30.4094C72.1739 30.4926 71.06 30.2679 70.0667 29.7599C69.0736 29.2518 68.2395 28.4801 67.6559 27.5294L70.6967 25.7714C70.942 26.267 71.3328 26.6758 71.8168 26.9433C72.3009 27.2106 72.855 27.3239 73.4051 27.2678C73.7567 27.3165 74.1148 27.2855 74.4528 27.1772C74.7908 27.0688 75.1001 26.8858 75.3579 26.6418C75.6156 26.3978 75.8152 26.099 75.9419 25.7673C76.0685 25.4357 76.1189 25.0799 76.0895 24.7262V23.6402C75.6722 24.1508 75.141 24.5565 74.5385 24.8247C73.936 25.0929 73.2791 25.2161 72.6203 25.1846C71.0529 25.1351 69.5662 24.4778 68.4749 23.3514C67.3836 22.2252 66.7734 20.7185 66.7734 19.1504C66.7734 17.5822 67.3836 16.0755 68.4749 14.9493C69.5662 13.823 71.0529 13.1656 72.6203 13.1162C73.2791 13.0846 73.936 13.2078 74.5385 13.476C75.141 13.7442 75.6722 14.15 76.0895 14.6606V13.4486L79.5587 13.451ZM76.0907 19.1522C76.1147 18.5778 75.9662 18.0094 75.6644 17.5202C75.3626 17.0308 74.9212 16.6431 74.3972 16.4068C73.8731 16.1704 73.2904 16.0964 72.7239 16.194C72.1574 16.2917 71.6331 16.5567 71.2184 16.955C70.8038 17.3531 70.5178 17.8662 70.3972 18.4283C70.2767 18.9904 70.3271 19.5758 70.5422 20.1089C70.7571 20.6421 71.1267 21.0988 71.6033 21.4202C72.08 21.7415 72.6419 21.9129 73.2167 21.9122C73.5912 21.9383 73.967 21.8858 74.3199 21.7578C74.6728 21.6299 74.995 21.4294 75.2657 21.1695C75.5364 20.9094 75.7498 20.5956 75.8919 20.2481C76.034 19.9007 76.1018 19.5274 76.0907 19.1522Z" fill="#D1D8E6"/>
<path d="M81.5783 19.3899C81.5734 18.1436 81.9383 16.9237 82.6272 15.885C83.316 14.8463 84.2976 14.0353 85.4477 13.5549C86.5978 13.0745 87.8645 12.9462 89.0875 13.1863C90.3106 13.4264 91.4349 14.024 92.3179 14.9036C93.201 15.7831 93.8032 16.905 94.0482 18.1271C94.2932 19.3491 94.17 20.6165 93.6942 21.7685C93.2184 22.9203 92.4114 23.9053 91.3755 24.5982C90.3394 25.2912 89.1211 25.6611 87.8747 25.6611C87.0474 25.6706 86.2264 25.515 85.4599 25.2035C84.6934 24.8919 83.9966 24.4308 83.4104 23.847C82.8241 23.2631 82.3602 22.5681 82.0457 21.8029C81.7311 21.0377 81.5722 20.2173 81.5783 19.3899ZM90.6071 19.3899C90.5922 18.8527 90.4193 18.3318 90.11 17.8922C89.8007 17.4528 89.3687 17.1141 88.8681 16.9189C88.3673 16.7235 87.8201 16.6801 87.295 16.7941C86.7697 16.9081 86.2897 17.1743 85.915 17.5596C85.5403 17.9448 85.2874 18.432 85.188 18.9602C85.0886 19.4883 85.1472 20.0341 85.3564 20.5292C85.5655 21.0243 85.9159 21.4467 86.3638 21.7437C86.8117 22.0407 87.3372 22.1991 87.8747 22.1991C88.2427 22.209 88.6089 22.1424 88.9499 22.0037C89.2911 21.8649 89.5997 21.6571 89.8564 21.3932C90.1131 21.1292 90.3124 20.8149 90.4415 20.4702C90.5707 20.1254 90.6271 19.7576 90.6071 19.3899Z" fill="#D1D8E6"/>
<path d="M95.832 10.2673C95.832 9.84437 95.9574 9.43093 96.1924 9.07928C96.4274 8.72762 96.7614 8.45353 97.1521 8.29169C97.5429 8.12983 97.9728 8.08748 98.3877 8.17C98.8024 8.25251 99.1835 8.45617 99.4825 8.75524C99.7816 9.05429 99.9852 9.43531 100.068 9.85013C100.15 10.2649 100.108 10.6949 99.9461 11.0856C99.7842 11.4764 99.5102 11.8104 99.1584 12.0453C98.8068 12.2803 98.3934 12.4057 97.9704 12.4057C97.4051 12.4001 96.8644 12.173 96.4646 11.7732C96.0648 11.3733 95.8377 10.8327 95.832 10.2673ZM96.192 13.4509H99.7572V25.3309H96.1872L96.192 13.4509Z" fill="#D1D8E6"/>
<path d="M115.148 19.3913C115.19 20.1765 115.075 20.962 114.812 21.7028C114.548 22.4435 114.141 23.1249 113.613 23.7077C113.086 24.2904 112.448 24.7632 111.737 25.0988C111.026 25.4342 110.255 25.6258 109.47 25.6625C108.81 25.6985 108.149 25.5872 107.537 25.3365C106.925 25.0857 106.377 24.7019 105.931 24.2129V30.0821H102.367V13.4513H105.931V14.5673C106.377 14.0787 106.926 13.6952 107.538 13.4447C108.15 13.1942 108.81 13.0829 109.47 13.1189C110.256 13.1555 111.026 13.347 111.737 13.6826C112.449 14.0181 113.086 14.4909 113.614 15.0738C114.142 15.6568 114.549 16.3384 114.812 17.0794C115.076 17.8203 115.19 18.606 115.148 19.3913ZM111.584 19.3913C111.57 18.8354 111.393 18.2958 111.074 17.8402C110.755 17.3847 110.308 17.0333 109.791 16.8303C109.273 16.6271 108.707 16.5812 108.163 16.6983C107.619 16.8153 107.122 17.0901 106.734 17.4882C106.346 17.8865 106.083 18.3903 105.98 18.9369C105.877 19.4834 105.937 20.0481 106.153 20.5606C106.369 21.0731 106.732 21.5104 107.195 21.818C107.658 22.1254 108.202 22.2894 108.758 22.2893C109.14 22.3064 109.521 22.2424 109.877 22.1018C110.232 21.9612 110.554 21.747 110.821 21.4734C111.087 21.1997 111.293 20.8728 111.425 20.514C111.557 20.1552 111.611 19.7726 111.584 19.3913Z" fill="#D1D8E6"/>
<path d="M126.143 21.765C126.143 24.4974 123.768 25.6614 121.202 25.6614C120.165 25.7553 119.125 25.5362 118.214 25.032C117.303 24.528 116.565 23.7624 116.094 22.8342L119.181 21.0762C119.306 21.5052 119.575 21.8786 119.941 22.1336C120.308 22.3887 120.752 22.5102 121.197 22.4778C122.052 22.4778 122.48 22.2162 122.48 21.7422C122.48 20.4342 116.635 21.1242 116.635 17.0142C116.635 14.4234 118.821 13.1178 121.292 13.1178C122.221 13.0884 123.14 13.3088 123.955 13.7558C124.77 14.2029 125.45 14.8602 125.924 15.6594L122.883 17.2986C122.75 16.9875 122.528 16.7224 122.245 16.5365C121.962 16.3506 121.631 16.2522 121.292 16.2534C120.674 16.2534 120.294 16.4934 120.294 16.9182C120.299 18.273 126.143 17.3694 126.143 21.765Z" fill="#D1D8E6"/>
<path d="M139.162 13.4512V25.3312H135.598V24.214C135.186 24.7069 134.664 25.0954 134.074 25.3474C133.483 25.5994 132.843 25.7077 132.202 25.6636C129.802 25.6636 127.762 23.9536 127.762 20.7436V13.4512H131.326V20.2216C131.296 20.5045 131.328 20.7906 131.421 21.0598C131.512 21.3291 131.662 21.5751 131.859 21.7806C132.055 21.9862 132.294 22.1464 132.559 22.2502C132.823 22.354 133.108 22.3989 133.392 22.3816C134.699 22.3816 135.601 21.622 135.601 19.9348V13.4548L139.162 13.4512Z" fill="#D1D8E6"/>
<path d="M159.6 18.0361V25.3297H156.036V18.3445C156.036 17.1565 155.466 16.3969 154.326 16.3969C153.138 16.3969 152.472 17.2285 152.472 18.6301V25.3297H148.909V18.3445C148.909 17.1565 148.339 16.3969 147.198 16.3969C146.01 16.3969 145.345 17.2285 145.345 18.6301V25.3297H141.781V13.4497H145.345V14.5417C145.715 14.0572 146.2 13.673 146.755 13.4242C147.312 13.1754 147.922 13.0699 148.529 13.1173C149.138 13.0874 149.746 13.2162 150.292 13.4908C150.836 13.7654 151.301 14.1768 151.64 14.6845C152.035 14.1532 152.558 13.7308 153.161 13.4568C153.763 13.1827 154.426 13.0659 155.086 13.1173C157.813 13.1185 159.6 15.0661 159.6 18.0361Z" fill="#D1D8E6"/>
<path d="M162.614 13.3775C164.074 13.3775 165.258 12.1933 165.258 10.7327C165.258 9.272 164.074 8.08789 162.614 8.08789C161.153 8.08789 159.969 9.272 159.969 10.7327C159.969 12.1933 161.153 13.3775 162.614 13.3775Z" fill="#D1D8E6"/>
</svg>
