<svg width="141" height="36" viewBox="0 0 141 36" fill="none" xmlns="http://www.w3.org/2000/svg">
<path d="M26.5384 15.1875C29.2281 15.1875 29.8333 16.3558 29.8333 17.8129C29.8333 19.3575 29.1012 20.4641 26.5495 20.4641C24.0141 20.4641 23.2812 19.4218 23.2812 17.8129C23.2812 16.2298 24.0801 15.1875 26.5384 15.1875Z" fill="#D1D8E6"/>
<path d="M54.6439 15.1875C57.3336 15.1875 57.9387 16.3558 57.9387 17.8129C57.9387 19.3575 57.2059 20.4641 54.655 20.4641C52.1204 20.4641 51.3867 19.4218 51.3867 17.8129C51.3867 16.2298 52.1856 15.1875 54.6439 15.1875Z" fill="#D1D8E6"/>
<path fill-rule="evenodd" clip-rule="evenodd" d="M2.72266 32.9996V2.61133H138.647V32.9996H2.72266ZM67.5038 31.2853H136.933V4.32561H67.5038V31.2853ZM26.5497 23.0508C31.3249 23.0508 33.3323 20.991 33.3323 17.7742C33.3323 14.505 31.0711 12.5619 26.5497 12.5619C22.0977 12.5619 19.7543 14.6722 19.7543 17.7742C19.7543 21.2748 22.2126 23.0508 26.5497 23.0508ZM9.94772 12.7933V22.8965H19.5854V20.2059H13.4346V12.7933H9.94772ZM44.1186 22.8965L44.0286 21.9176C42.8621 22.7501 41.4423 23.1507 40.0129 23.0508C37.864 23.0508 36.0743 22.407 35.0706 21.1076C34.4085 20.1589 34.0742 19.0201 34.1183 17.8642C34.0807 16.7325 34.4265 15.6213 35.0997 14.7108C36.1154 13.4499 37.9566 12.6133 40.6977 12.6133C43.8511 12.6133 45.7043 13.5785 46.5014 15.2002C46.6725 15.5821 46.7731 15.9918 46.798 16.4096H43.462C43.3779 16.1557 43.2215 15.932 43.012 15.7659C42.3475 15.3253 41.5539 15.1216 40.7594 15.1873C40.2934 15.1308 39.8206 15.1739 39.3725 15.3137C38.9244 15.4535 38.511 15.6868 38.1597 15.9982C37.7608 16.5442 37.5735 17.2164 37.6326 17.8899C37.5863 18.5325 37.7585 19.1719 38.1211 19.7045C38.4756 20.0347 38.8969 20.2848 39.3565 20.4381C39.8162 20.5913 40.3033 20.644 40.7851 20.5925C41.742 20.6703 42.6919 20.3752 43.4363 19.7688C43.5961 19.5689 43.7064 19.3338 43.7577 19.083H40.168V16.9119H46.8854V22.8965H44.1186ZM54.6589 23.0508C59.4331 23.0508 61.4414 20.991 61.4414 17.7742C61.4414 14.505 59.1768 12.5619 54.6589 12.5619C50.2069 12.5619 47.8634 14.6722 47.8634 17.7742C47.8634 21.2748 50.3217 23.0508 54.6589 23.0508Z" fill="#D1D8E6"/>
<path d="M73.375 22.858V12.7549H75.8607V22.858H73.375Z" fill="#D1D8E6"/>
<path d="M88.6297 18.6365C87.9997 19.4602 86.9154 19.8365 85.3871 19.8459C85.0648 19.8459 80.7919 19.8331 80.7919 19.8331V22.8579H78.3594V12.7548H85.3879C85.9513 12.6952 86.5211 12.755 87.0594 12.9301C87.5985 13.1053 88.0939 13.3919 88.5148 13.7714C89.0702 14.495 89.3402 15.3972 89.2742 16.3068C89.3308 17.1341 89.1037 17.956 88.6297 18.6365ZM86.6351 15.3425C86.3779 14.9568 85.8234 14.7425 84.8848 14.7425H80.7791V17.8179H84.8582C85.8619 17.8179 86.3908 17.6122 86.6351 17.2128C86.7799 16.9314 86.8425 16.6145 86.8151 16.2991C86.8365 15.9701 86.7748 15.641 86.6351 15.3425Z" fill="#D1D8E6"/>
<path d="M96.4416 23.0123C91.8593 23.0123 90.457 21.298 90.457 19.6017H93.0567C93.0567 20.4383 94.2019 21.0692 96.5573 21.0692C98.899 21.0692 99.517 20.6569 99.517 19.9874C99.517 19.2409 99.0542 19.0094 96.8787 18.7652C96.4502 18.7266 95.2836 18.5852 94.8456 18.5209C91.7599 18.1729 90.5719 17.2592 90.5719 15.6246C90.5719 13.9 92.3102 12.6006 96.0807 12.6006C100.174 12.6006 101.744 14.2094 101.744 15.8826H99.1725C99.1725 15.0332 98.2073 14.5437 95.929 14.5437C93.5865 14.5437 93.085 14.8652 93.085 15.496C93.085 16.1526 93.5993 16.3583 96.085 16.654C96.6516 16.732 97.9125 16.8734 98.2596 16.9112C100.886 17.1812 102.07 18.1334 102.07 19.8194C102.065 21.8277 100.264 23.0123 96.4416 23.0123Z" fill="#D1D8E6"/>
<path d="M109.386 22.9995C106.028 22.9995 103.84 21.6735 103.84 18.8852V12.7549H106.297V18.9195C106.297 20.194 107.34 21.0426 109.489 21.0426C111.432 21.0426 112.591 20.2455 112.591 18.9195V12.7549H115.024V19.114C115.024 21.6486 112.99 22.9995 109.386 22.9995Z" fill="#D1D8E6"/>
<path d="M128.346 22.858V16.114L125.193 22.858H122.8L119.736 16.114V22.858H117.422V12.7549H120.557L124.032 20.4512L127.584 12.7549H130.67V22.858H128.346Z" fill="#D1D8E6"/>
</svg>
