<svg width="82" height="58" viewBox="0 0 82 58" fill="none" xmlns="http://www.w3.org/2000/svg">
<path d="M6.88257 52.5732V40.7568H4.94531V52.5732H6.88257Z" fill="#152C4F"/>
<path d="M8.07031 48.6342C8.07031 51.0483 9.69001 52.7635 12.1512 52.7635C14.6125 52.7635 16.2322 51.0483 16.2322 48.6342C16.2322 46.2201 14.6125 44.5049 12.1512 44.5049C9.69001 44.5049 8.07031 46.2201 8.07031 48.6342ZM10.0234 48.6342C10.0234 47.2207 10.8651 46.236 12.1512 46.236C13.4374 46.236 14.2791 47.2207 14.2791 48.6342C14.2791 50.0318 13.4374 51.0324 12.1512 51.0324C10.8651 51.0324 10.0234 50.0318 10.0234 48.6342Z" fill="#152C4F"/>
<path d="M16.8828 48.475C16.8828 50.7621 18.3595 52.4138 20.5668 52.4138C21.7101 52.4138 22.6946 51.9532 23.1868 51.1909V52.5249C23.1868 53.8114 22.377 54.6691 21.0272 54.6691C19.8204 54.6691 18.9947 54.0814 18.8836 53.0491H16.9305C17.1845 55.0979 18.7565 56.4319 20.9161 56.4319C23.4568 56.4319 25.0764 54.7643 25.0764 52.1755V44.7268H23.3615L23.2504 45.7909C22.774 44.965 21.7895 44.4727 20.6302 44.4727C18.3913 44.4727 16.8828 46.1721 16.8828 48.475ZM18.8518 48.4273C18.8518 47.125 19.6776 46.1721 20.9003 46.1721C22.2341 46.1721 23.1233 47.1409 23.1233 48.4273C23.1233 49.7297 22.2341 50.7302 20.9003 50.7302C19.6934 50.7302 18.8518 49.7456 18.8518 48.4273Z" fill="#152C4F"/>
<path d="M26.0352 48.6342C26.0352 51.0483 27.6548 52.7635 30.1161 52.7635C32.5773 52.7635 34.197 51.0483 34.197 48.6342C34.197 46.2201 32.5773 44.5049 30.1161 44.5049C27.6548 44.5049 26.0352 46.2201 26.0352 48.6342ZM27.9883 48.6342C27.9883 47.2207 28.8299 46.236 30.1161 46.236C31.4023 46.236 32.2439 47.2207 32.2439 48.6342C32.2439 50.0318 31.4023 51.0324 30.1161 51.0324C28.8299 51.0324 27.9883 50.0318 27.9883 48.6342Z" fill="#152C4F"/>
<path d="M36.2917 43.1232C36.9269 43.1232 37.451 42.6149 37.451 41.9638C37.451 41.3285 36.9269 40.8203 36.2917 40.8203C35.6407 40.8203 35.1484 41.3285 35.1484 41.9638C35.1484 42.6149 35.6407 43.1232 36.2917 43.1232ZM35.3231 52.5731H37.2604V44.7273H35.3231V52.5731Z" fill="#152C4F"/>
<path d="M38.957 56.2103H40.8466V51.4933C41.3389 52.3033 42.4028 52.7797 43.5778 52.7797C45.8962 52.7797 47.2777 51.0009 47.2459 48.5551C47.1983 46.0933 45.785 44.4893 43.5619 44.4893C42.371 44.4893 41.2912 45.0134 40.8148 45.9186L40.7037 44.7275H38.957V56.2103ZM40.926 48.6504C40.926 47.2369 41.7835 46.2521 43.1332 46.2521C44.4829 46.2521 45.2927 47.2527 45.2927 48.6504C45.2927 50.048 44.4829 51.0327 43.1332 51.0327C41.7835 51.0327 40.926 50.0639 40.926 48.6504Z" fill="#152C4F"/>
<path d="M47.7383 50.2227C47.8018 51.7792 49.0086 52.7797 50.8823 52.7797C52.7243 52.7797 53.9788 51.7951 53.9788 50.2704C53.9788 49.1427 53.2801 48.3804 51.9939 48.0628L50.6124 47.7292C50.0249 47.5704 49.6279 47.3639 49.6279 46.8557C49.6279 46.3157 50.0566 45.9346 50.7553 45.9346C51.4858 45.9346 51.9622 46.3475 51.9622 47.0304H53.7247C53.6612 45.4739 52.502 44.4893 50.803 44.4893C49.1198 44.4893 47.8653 45.4739 47.8653 46.9669C47.8653 47.9834 48.4529 48.8251 49.9614 49.2221L51.327 49.5715C51.8351 49.7145 52.1527 49.9527 52.1527 50.3974C52.1527 51.0168 51.5652 51.3027 50.8506 51.3027C49.9931 51.3027 49.5009 50.9056 49.5009 50.2227H47.7383Z" fill="#152C4F"/>
<path d="M57.9991 52.7788C59.063 52.7788 60.0793 52.2864 60.5398 51.5558L60.6668 52.5723H62.4771V44.7266H60.5398V48.84C60.5398 50.2535 59.9999 51.0476 58.7296 51.0476C57.7451 51.0476 57.0623 50.5712 57.0623 48.9512V44.7266H55.125V49.6341C55.125 51.5082 56.1413 52.7788 57.9991 52.7788Z" fill="#152C4F"/>
<path d="M66.1247 52.5733V48.0628C66.1247 46.7922 66.871 46.1887 67.792 46.1887C68.713 46.1887 69.3164 46.7763 69.3164 47.8881V52.5733H71.2061V48.0786C71.2061 46.7922 71.9365 46.1887 72.8575 46.1887C73.7943 46.1887 74.3978 46.7763 74.3978 47.8881V52.5733H76.2715V47.4433C76.2715 45.6328 75.2711 44.4893 73.3656 44.4893C72.1747 44.4893 71.2378 45.061 70.8567 45.9822C70.428 45.061 69.5705 44.4893 68.2684 44.4893C67.3474 44.4893 66.5217 44.9181 66.0612 45.6169L65.9659 44.7275H64.1875V52.5733H66.1247Z" fill="#152C4F"/>
<path d="M35.8969 30.06C33.3447 34.6528 28.1483 36.8379 22.894 36.8379H1.8125C23.7584 34.0946 39.0422 23.1217 41.0017 7.83789C42.9611 23.1217 58.2449 34.0946 80.1909 36.8379H59.1094C53.855 36.8379 48.6586 34.6528 46.1065 30.06C43.3441 25.089 41.5842 19.4641 41.0017 13.3244C40.4192 19.4641 38.6593 25.089 35.8969 30.06Z" fill="#1A4688"/>
<path d="M23.8398 28.4365C22.6087 29.1296 21.3137 29.7806 19.9578 30.387C19.1875 27.7264 18.9041 24.935 19.1302 22.1542C19.4292 18.4756 20.6106 14.929 22.5697 11.8289C24.5289 8.72882 27.2053 6.17069 30.3619 4.38123C33.5185 2.59177 37.058 1.62617 40.6666 1.56998C44.2752 1.51379 47.8416 2.36873 51.0501 4.05908C54.2585 5.74942 57.0098 8.22296 59.0603 11.2607C61.1108 14.2984 62.3972 17.8064 62.8056 21.4741C63.1396 24.474 62.8778 27.5051 62.0435 30.387C60.6876 29.7806 59.3926 29.1295 58.1615 28.4364C58.6805 26.3295 58.826 24.1375 58.5842 21.9658C58.2548 19.0082 57.2174 16.1793 55.564 13.7297C53.9104 11.2802 51.6918 9.28546 49.1045 7.92238C46.5172 6.55928 43.6412 5.86986 40.7312 5.91517C37.8212 5.96048 34.9671 6.73914 32.4216 8.18213C29.8761 9.62515 27.7178 11.688 26.138 14.1879C24.5581 16.6879 23.6054 19.5478 23.3643 22.5143C23.2022 24.5083 23.3649 26.5091 23.8398 28.4365Z" fill="#7FB5E6"/>
</svg>
