<svg width="138" height="36" viewBox="0 0 138 36" fill="none" xmlns="http://www.w3.org/2000/svg">
<path d="M11.3071 32.6544L8.05469 27.021L12.8278 18.7764L15.8609 24.0303L33.7661 24.0207L28.6854 32.7322L11.3071 32.6544Z" fill="#FFAD64"/>
<path d="M36.9643 18.4272L33.7119 24.0605L24.1853 24.0493L27.2187 18.7955L18.2578 3.29395L28.3425 3.3382L36.9643 18.4272Z" fill="#ADD4D3"/>
<path d="M11.8073 3.26367H18.3122L23.0657 11.5197L16.999 11.5194L8.05486 27.0306L3.05078 18.2749L11.8073 3.26367Z" fill="#FB8351"/>
<path fill-rule="evenodd" clip-rule="evenodd" d="M19.1073 1.95943L19.0879 1.92578H11.0409L1.50781 18.2682L8.05175 29.7182L8.05978 29.7043L10.5337 33.9892L29.4531 34.0738L36.0972 22.6815H36.053L38.5074 18.4304L29.121 2.00336L19.1073 1.95943ZM25.3321 12.8578H25.3823L20.652 4.64234L27.5641 4.67265L35.4213 18.4235L32.962 22.6833L26.517 22.6867L28.7641 18.7948L25.3321 12.8578ZM17.4686 4.60184L20.694 10.1816L16.2282 10.1815L8.58262 23.4404L8.0611 24.3413L4.59797 18.2818L12.578 4.60184H17.4686ZM14.3675 18.7654L17.7741 12.8576L22.2411 12.8578L25.6735 18.7956L23.4259 22.6884L16.6344 22.6921L14.3675 18.7654ZM9.60384 27.0265L10.8999 24.779L12.8272 21.4499L15.0897 25.369L21.8802 25.3653L21.8692 25.3843L31.4164 25.3956L27.9199 31.3909L12.0827 31.32L9.60384 27.0265Z" fill="#333237"/>
<path d="M87.2464 11.7188C88.1628 11.7188 88.9073 10.9742 88.9073 10.0388C88.9073 9.10338 88.1628 8.37793 87.2464 8.37793C86.311 8.37793 85.5664 9.10338 85.5664 10.0388C85.5664 10.9742 86.311 11.7188 87.2464 11.7188ZM85.7573 22.7533H88.7164V13.2079H85.7573V22.7533Z" fill="#FB8351"/>
<path d="M90.4375 27.3351H93.3394V21.7987C93.893 22.5242 95.153 23.0205 96.4703 23.0205C99.3148 23.0205 101.033 20.8442 100.957 17.8278C100.88 14.7541 99.1048 12.9023 96.4512 12.9023C95.0957 12.9023 93.8166 13.4941 93.2821 14.3723L93.1294 13.2078H90.4375V27.3351ZM93.3966 17.9805C93.3966 16.5487 94.3512 15.5942 95.7257 15.5942C97.1194 15.5942 97.9976 16.5678 97.9976 17.9805C97.9976 19.3932 97.1194 20.3669 95.7257 20.3669C94.3512 20.3669 93.3966 19.4123 93.3966 17.9805Z" fill="#FB8351"/>
<path d="M101.27 19.7369C101.346 21.6651 102.874 23.0014 105.279 23.0014C107.589 23.0014 109.193 21.7796 109.193 19.8132C109.193 18.4005 108.353 17.4651 106.787 17.0832L105.088 16.6632C104.477 16.5105 104.095 16.3578 104.095 15.8614C104.095 15.3651 104.496 15.0405 105.088 15.0405C105.756 15.0405 106.195 15.4796 106.176 16.1287H108.83C108.754 14.1432 107.245 12.9023 105.145 12.9023C103.026 12.9023 101.442 14.1623 101.442 16.0714C101.442 17.3505 102.148 18.4005 104.038 18.8969L105.718 19.336C106.214 19.4696 106.424 19.6987 106.424 20.0232C106.424 20.5005 105.985 20.806 105.241 20.806C104.382 20.806 103.924 20.4051 103.924 19.7369H101.27Z" fill="#FB8351"/>
<path d="M113.693 23.0016C114.857 23.0016 116.022 22.4671 116.614 21.6844L116.805 22.7534H119.573V13.208H116.633V18.1716C116.633 19.6034 116.213 20.3862 114.857 20.3862C113.807 20.3862 113.12 19.9089 113.12 18.1334V13.208H110.18V19.2025C110.18 21.4744 111.44 23.0016 113.693 23.0016Z" fill="#FB8351"/>
<path d="M124.236 22.7528V17.541C124.236 15.9374 125.095 15.4792 125.935 15.4792C126.871 15.4792 127.482 16.0519 127.482 17.2356V22.7528H130.383V17.541C130.383 15.9183 131.223 15.4601 132.063 15.4601C132.999 15.4601 133.629 16.0328 133.629 17.2356V22.7528H136.492V16.5101C136.492 14.3337 135.347 12.8828 132.884 12.8828C131.51 12.8828 130.383 13.551 129.887 14.5819C129.314 13.551 128.322 12.8828 126.737 12.8828C125.687 12.8828 124.713 13.3601 124.141 14.1237L124.026 13.2074H121.277V22.7528H124.236Z" fill="#FB8351"/>
<path d="M46.9239 8.62793H43.793V22.7552H52.4603V19.987H46.9239V8.62793Z" fill="#333237"/>
<path d="M52.7578 17.963C52.7578 20.9793 54.7815 22.9839 57.836 22.9839C60.8715 22.9839 62.8951 20.9793 62.8951 17.963C62.8951 14.9466 60.8715 12.9229 57.836 12.9229C54.7815 12.9229 52.7578 14.9466 52.7578 17.963ZM55.7169 17.9439C55.7169 16.512 56.5569 15.5575 57.836 15.5575C59.096 15.5575 59.936 16.512 59.936 17.9439C59.936 19.3948 59.096 20.3493 57.836 20.3493C56.5569 20.3493 55.7169 19.3948 55.7169 17.9439Z" fill="#333237"/>
<path d="M63.3701 17.8102C63.3701 20.693 65.2411 22.6402 67.8947 22.6402C69.1738 22.6402 70.2811 22.1821 70.8347 21.4375V22.7548C70.8347 24.0721 70.0138 24.9502 68.5629 24.9502C67.2647 24.9502 66.3674 24.3393 66.3101 23.2511H63.332C63.5992 25.8666 65.6229 27.623 68.3911 27.623C71.6556 27.623 73.7174 25.5039 73.7174 22.1439V13.2093H71.0638L70.9111 14.183C70.3765 13.4002 69.2502 12.8848 67.952 12.8848C65.2792 12.8848 63.3701 14.8893 63.3701 17.8102ZM66.3483 17.7339C66.3483 16.3593 67.2647 15.443 68.4292 15.443C69.7847 15.443 70.7774 16.3402 70.7774 17.7339C70.7774 19.1275 69.8038 20.082 68.4483 20.082C67.2838 20.082 66.3483 19.1275 66.3483 17.7339Z" fill="#333237"/>
<path d="M74.5742 17.963C74.5742 20.9793 76.5978 22.9839 79.6524 22.9839C82.6878 22.9839 84.7115 20.9793 84.7115 17.963C84.7115 14.9466 82.6878 12.9229 79.6524 12.9229C76.5978 12.9229 74.5742 14.9466 74.5742 17.963ZM77.5333 17.9439C77.5333 16.512 78.3733 15.5575 79.6524 15.5575C80.9124 15.5575 81.7524 16.512 81.7524 17.9439C81.7524 19.3948 80.9124 20.3493 79.6524 20.3493C78.3733 20.3493 77.5333 19.3948 77.5333 17.9439Z" fill="#333237"/>
</svg>
