<svg width="126" height="36" viewBox="0 0 126 36" fill="none" xmlns="http://www.w3.org/2000/svg">
<path fill-rule="evenodd" clip-rule="evenodd" d="M21.2116 2.91424C20.0425 1.7457 18.1476 1.74608 16.9791 2.9151L7.22671 12.6715L7.21839 12.669L7.18757 12.6723C7.20027 12.6784 7.21273 12.6844 7.22494 12.6906C5.51417 12.8698 4.78832 13.3839 4.7801 14.0441C4.78299 14.2897 4.88376 14.5549 5.06883 14.8302L5.05994 14.8391C6.6152 17.1848 14.3199 20.2792 19.7708 18.1827C15.6856 20.2253 6.06469 20.6301 3.23888 16.6642C2.62521 17.3281 2.36845 18.2005 2.46514 19.0389C3.21164 23.1534 11.5575 24.2759 19.9035 18.3145L21.7095 20.1206C19.4622 22.4294 16.1426 35.8406 21.0752 33.793C21.1922 33.7135 21.2915 33.6425 21.4265 33.5403L21.6464 33.3327C21.6337 33.3359 21.6211 33.3388 21.6086 33.3418L34.819 20.8704C36.0456 19.7124 36.0734 17.77 34.8803 16.5774L21.2116 2.91424ZM19.773 6.97855L20.2245 5.17253L20.6759 6.97855L22.0305 7.43006L20.6759 7.88158L20.2245 9.6876L19.773 7.88158L18.4184 7.43006L19.773 6.97855ZM14.1844 12.8742L14.4854 11.6702L14.7864 12.8742L15.6895 13.1752L14.7864 13.4762L14.4854 14.6803L14.1844 13.4762L13.2815 13.1752L14.1844 12.8742ZM24.668 23.0301L24.367 24.234L23.464 24.5351L24.367 24.8361L24.668 26.0401L24.9689 24.8361L25.872 24.5351L24.9689 24.234L24.668 23.0301Z" fill="#4845D2"/>
<path d="M43.3581 9.60742H40.5547V22.2569H48.3153V19.7783H43.3581V9.60742Z" fill="#4845D2"/>
<path d="M48.582 17.9659C48.582 20.6667 50.394 22.4616 53.129 22.4616C55.847 22.4616 57.6589 20.6667 57.6589 17.9659C57.6589 15.265 55.847 13.4531 53.129 13.4531C50.394 13.4531 48.582 15.265 48.582 17.9659ZM51.2316 17.9488C51.2316 16.6668 51.9837 15.8121 53.129 15.8121C54.2572 15.8121 55.0094 16.6668 55.0094 17.9488C55.0094 19.248 54.2572 20.1026 53.129 20.1026C51.9837 20.1026 51.2316 19.248 51.2316 17.9488Z" fill="#4845D2"/>
<path d="M58.081 17.8292C58.081 20.4103 59.7562 22.1539 62.1322 22.1539C63.2776 22.1539 64.269 21.7436 64.7647 21.077V22.2565C64.7647 23.4359 64.0297 24.2223 62.7306 24.2223C61.5681 24.2223 60.7648 23.6753 60.7135 22.7009H58.0469C58.2861 25.0428 60.0981 26.6155 62.5767 26.6155C65.4998 26.6155 67.3459 24.718 67.3459 21.7094V13.7095H64.9698L64.8331 14.5813C64.3545 13.8805 63.3459 13.4189 62.1836 13.4189C59.7905 13.4189 58.081 15.2138 58.081 17.8292ZM60.7477 17.7608C60.7477 16.5301 61.5682 15.7095 62.6109 15.7095C63.8246 15.7095 64.7135 16.5129 64.7135 17.7608C64.7135 19.0087 63.8417 19.8633 62.628 19.8633C61.5853 19.8633 60.7477 19.0087 60.7477 17.7608Z" fill="#4845D2"/>
<path d="M68.1133 17.9659C68.1133 20.6667 69.9252 22.4616 72.6602 22.4616C75.3782 22.4616 77.1901 20.6667 77.1901 17.9659C77.1901 15.265 75.3782 13.4531 72.6602 13.4531C69.9252 13.4531 68.1133 15.265 68.1133 17.9659ZM70.7628 17.9488C70.7628 16.6668 71.515 15.8121 72.6602 15.8121C73.7884 15.8121 74.5405 16.6668 74.5405 17.9488C74.5405 19.248 73.7884 20.1026 72.6602 20.1026C71.515 20.1026 70.7628 19.248 70.7628 17.9488Z" fill="#4845D2"/>
<path d="M79.4614 12.3752C80.2816 12.3752 80.9484 11.7086 80.9484 10.871C80.9484 10.0334 80.2816 9.38379 79.4614 9.38379C78.6237 9.38379 77.957 10.0334 77.957 10.871C77.957 11.7086 78.6237 12.3752 79.4614 12.3752ZM78.128 22.2555H80.7778V13.7086H78.128V22.2555Z" fill="#4845D2"/>
<path d="M82.3203 26.3585H84.9186V21.4013C85.4147 22.0509 86.5425 22.4953 87.7227 22.4953C90.2693 22.4953 91.8079 20.5466 91.739 17.8458C91.6709 15.0937 90.0814 13.4355 87.7054 13.4355C86.4916 13.4355 85.3467 13.9655 84.8677 14.7518L84.7307 13.7091H82.3203V26.3585ZM84.9702 17.9825C84.9702 16.7005 85.8248 15.8458 87.0559 15.8458C88.3034 15.8458 89.0899 16.7176 89.0899 17.9825C89.0899 19.2475 88.3034 20.1193 87.0559 20.1193C85.8248 20.1193 84.9702 19.2646 84.9702 17.9825Z" fill="#4845D2"/>
<path d="M92.0195 19.5552C92.0876 21.2817 93.4556 22.4782 95.6094 22.4782C97.6778 22.4782 99.1139 21.3842 99.1139 19.6236C99.1139 18.3586 98.361 17.521 96.9594 17.1792L95.438 16.803C94.8909 16.6663 94.5497 16.5296 94.5497 16.0851C94.5497 15.6407 94.9081 15.35 95.438 15.35C96.0367 15.35 96.4295 15.7432 96.4123 16.3245H98.7891C98.7202 14.5467 97.3702 13.4355 95.4896 13.4355C93.5918 13.4355 92.1737 14.5638 92.1737 16.2731C92.1737 17.4185 92.8061 18.3586 94.4981 18.8031L96.0022 19.1962C96.4467 19.3158 96.6346 19.521 96.6346 19.8116C96.6346 20.2389 96.2417 20.5124 95.5749 20.5124C94.8056 20.5124 94.3955 20.1535 94.3955 19.5552H92.0195Z" fill="#4845D2"/>
<path d="M103.141 22.4781C104.185 22.4781 105.227 21.9996 105.757 21.2986L105.928 22.2559H108.407V13.709H105.774V18.1534C105.774 19.4354 105.398 20.1363 104.185 20.1363C103.244 20.1363 102.629 19.7089 102.629 18.1192V13.709H99.9961V19.0764C99.9961 21.1107 101.125 22.4781 103.141 22.4781Z" fill="#4845D2"/>
<path d="M112.576 22.2565V17.5899C112.576 16.1539 113.345 15.7437 114.097 15.7437C114.934 15.7437 115.482 16.2565 115.482 17.3163V22.2565H118.08V17.5899C118.08 16.1369 118.832 15.7266 119.584 15.7266C120.421 15.7266 120.986 16.2394 120.986 17.3163V22.2565H123.55V16.6668C123.55 14.7181 122.524 13.4189 120.319 13.4189C119.089 13.4189 118.08 14.0173 117.635 14.9403C117.123 14.0173 116.234 13.4189 114.815 13.4189C113.875 13.4189 113.003 13.8463 112.49 14.53L112.388 13.7095H109.926V22.2565H112.576Z" fill="#4845D2"/>
<path fill-rule="evenodd" clip-rule="evenodd" d="M35.8381 4.10938C33.0139 4.10938 30.3356 5.36383 28.5275 7.53345L22.0953 15.2523L25.8095 9.68078L19.6442 12.3231C18.8612 12.6587 18.6647 13.6788 19.267 14.2812L21.2511 16.2652L20.2381 17.4808L22.4667 19.7094L23.6823 18.6964L25.6663 20.6804C26.2686 21.2827 27.2888 21.0863 27.6243 20.3034L30.2667 14.138L24.6953 17.8522L32.4141 11.4199C34.5837 9.61191 35.8381 6.93359 35.8381 4.10938ZM29.7096 10.2381C30.325 10.8534 31.3227 10.8534 31.9382 10.2381C32.5535 9.62263 32.5535 8.62489 31.9382 8.00952C31.3227 7.39409 30.325 7.39409 29.7096 8.00952C29.0942 8.62489 29.0942 9.62263 29.7096 10.2381Z" fill="#A3A2FF"/>
<path opacity="0.6" d="M3.16406 16.5615C4.63964 21.617 13.6108 21.3534 19.7659 18.1846C15.6444 20.2441 5.8946 20.6374 3.16406 16.5615Z" fill="#424242"/>
<path opacity="0.6" d="M21.0755 33.7937C16.9192 35.519 18.6222 26.2683 20.6056 21.9326C19.1598 25.7863 17.9257 34.2816 21.6467 33.3334L21.4269 33.541C21.2918 33.6432 21.1925 33.7142 21.0755 33.7937Z" fill="#424242"/>
</svg>
