<svg width="40" height="40" viewBox="0 0 40 40" fill="none" xmlns="http://www.w3.org/2000/svg">
<rect width="40" height="40" rx="8" fill="#9FAEFD"/>
<path fill-rule="evenodd" clip-rule="evenodd" d="M17.7042 10.8316C14.7292 11.5042 12.3948 13.7906 11.6787 16.7333C11.287 18.3424 11.2906 20.0355 11.6822 21.6446C12.4096 24.6333 14.5493 27.1206 17.4197 28.2796L17.5448 28.3301C18.7869 28.8317 20.2098 28.2277 20.7195 26.997C20.8597 26.6583 21.1937 26.4336 21.5628 26.4336H22.6866C25.7432 26.4336 28.4021 24.3567 29.1195 21.4089C29.4758 19.9451 29.4758 18.4181 29.1195 16.9542L29.0254 16.5677C28.3339 13.7264 26.08 11.5189 23.2076 10.8695L22.804 10.7782C21.2033 10.4164 19.5411 10.4164 17.9403 10.7782L17.7042 10.8316ZM16.8887 15.8735C16.5039 15.8735 16.192 16.183 16.192 16.5648C16.192 16.9465 16.5039 17.256 16.8887 17.256H23.2751C23.6599 17.256 23.9718 16.9465 23.9718 16.5648C23.9718 16.183 23.6599 15.8735 23.2751 15.8735H16.8887ZM18.0498 19.3297C17.6651 19.3297 17.3531 19.6392 17.3531 20.0209C17.3531 20.4027 17.6651 20.7122 18.0498 20.7122H22.114C22.4987 20.7122 22.8107 20.4027 22.8107 20.0209C22.8107 19.6392 22.4987 19.3297 22.114 19.3297H18.0498Z" fill="white"/>
</svg>
