<svg width="40" height="40" viewBox="0 0 40 40" fill="none" xmlns="http://www.w3.org/2000/svg">
<rect width="40" height="40" rx="8" fill="#BA9FFD"/>
<path fill-rule="evenodd" clip-rule="evenodd" d="M7.95827 23.9603C7.34725 21.3555 7.34724 18.6445 7.95826 16.0397C8.84066 12.2779 11.7779 9.34065 15.5397 8.45826C18.1445 7.84724 20.8555 7.84724 23.4603 8.45826C27.2221 9.34066 30.1593 12.2779 31.0417 16.0397C31.6528 18.6445 31.6528 21.3555 31.0417 23.9603C30.1593 27.7221 27.2221 30.6593 23.4603 31.5417C20.8555 32.1528 18.1445 32.1528 15.5397 31.5417C11.7779 30.6593 8.84066 27.7221 7.95827 23.9603ZM15.6709 19.2342C15.2479 19.2342 14.905 19.5771 14.905 20C14.905 20.423 15.2479 20.7659 15.6709 20.7659L22.0528 20.7659C22.4757 20.7659 22.8186 20.423 22.8186 20C22.8186 19.5771 22.4757 19.2342 22.0528 19.2342H15.6709ZM18.2236 23.0633C17.8007 23.0633 17.4578 23.4062 17.4578 23.8292C17.4578 24.2521 17.8007 24.595 18.2236 24.595H23.3291C23.7521 24.595 24.095 24.2521 24.095 23.8292C24.095 23.4062 23.7521 23.0633 23.3291 23.0633H18.2236ZM19.5 15.4051C19.077 15.4051 18.7342 15.7479 18.7342 16.1709C18.7342 16.5938 19.077 16.9367 19.5 16.9367H23.3291C23.7521 16.9367 24.095 16.5938 24.095 16.1709C24.095 15.7479 23.7521 15.4051 23.3291 15.4051H19.5Z" fill="white"/>
</svg>
