<svg width="733" height="440" viewBox="0 0 733 440" fill="none" xmlns="http://www.w3.org/2000/svg">
<path d="M545.719 41.1559C498.5 80.2363 517.78 112.808 477.8 146.212C436.497 180.72 380.903 133.975 336.6 168.457C284.411 209.077 327.175 247.534 273.533 290.435C220.93 332.505 162.961 284.414 91.2609 320.845C44.8694 344.417 16.016 387.142 2.07095 412.655C-3.29942 422.481 3.98546 433.588 15.1822 433.686L712.45 439.771C721.286 439.848 728.512 432.747 728.589 423.911L732.05 27.2498C732.108 20.6262 728.106 14.7026 721.714 12.9642C695.291 5.77696 622.359 -7.05912 545.719 41.1559Z" fill="url(#paint0_linear)"/>
<defs>
<linearGradient id="paint0_linear" x1="732.256" y1="3.66305" x2="-17.2901" y2="219.671" gradientUnits="userSpaceOnUse">
<stop stop-color="#1D8CF5"/>
<stop offset="0.791667" stop-color="#66B0F5"/>
<stop offset="0.973958" stop-color="#66D3F5"/>
</linearGradient>
</defs>
</svg>
