<svg width="60" height="60" viewBox="0 0 60 60" fill="none" xmlns="http://www.w3.org/2000/svg">
<rect width="60" height="60" rx="8" fill="#FA9473"/>
<path d="M30.8163 13V33.4575H45.6708C46.1939 30.3353 46.0936 27.1347 45.3699 24.0425C44.1566 18.8586 40.1179 14.811 34.9455 13.5951C33.5848 13.2752 32.2031 13.0768 30.8163 13Z" fill="white"/>
<path d="M28.1837 46V25.5424H13.3292C12.8061 28.6647 12.9064 31.8653 13.6301 34.9575C14.8434 40.1414 18.8821 44.189 24.0545 45.4049C25.4152 45.7248 26.797 45.9232 28.1837 46Z" fill="white"/>
<path d="M28.1855 13V22.9041H13.9492C15.4529 18.2715 19.269 14.7205 24.0563 13.5951C25.417 13.2752 26.7987 13.0768 28.1855 13Z" fill="white" fill-opacity="0.4"/>
<path d="M45.0543 36.0958H30.818V46C32.2048 45.9232 33.5865 45.7248 34.9472 45.4049C39.7345 44.2795 43.5506 40.7284 45.0543 36.0958Z" fill="white" fill-opacity="0.4"/>
</svg>
