<svg width="40" height="40" viewBox="0 0 40 40" fill="none" xmlns="http://www.w3.org/2000/svg">
<rect width="40" height="40" rx="8" fill="#8AE2CD"/>
<path d="M13.6944 15.3926C13.6944 13.2465 15.4508 11.5068 17.6175 11.5068C19.7841 11.5068 21.5406 13.2465 21.5406 15.3926C21.5406 17.5386 19.7841 19.2783 17.6175 19.2783C15.4508 19.2783 13.6944 17.5386 13.6944 15.3926Z" fill="white"/>
<path d="M15.138 21.033L15.3023 21.007C16.8361 20.7645 18.3989 20.7645 19.9326 21.007L20.097 21.033C22.2581 21.3746 23.8483 23.2209 23.8483 25.3885C23.8483 26.5584 22.8907 27.5068 21.7095 27.5068H13.5255C12.3443 27.5068 11.3867 26.5584 11.3867 25.3885C11.3867 23.2209 12.9769 21.3746 15.138 21.033Z" fill="white"/>
<path d="M23.1572 11.5068C22.7748 11.5068 22.4648 11.8138 22.4648 12.1926C22.4648 12.5713 22.7748 12.8783 23.1572 12.8783C24.5591 12.8783 25.6956 14.0039 25.6956 15.3926C25.6956 16.7812 24.5591 17.9068 23.1572 17.9068C22.7748 17.9068 22.4648 18.2138 22.4648 18.5926C22.4648 18.9713 22.7748 19.2783 23.1572 19.2783C25.3238 19.2783 27.0802 17.5386 27.0802 15.3926C27.0802 13.2465 25.3238 11.5068 23.1572 11.5068Z" fill="white" fill-opacity="0.4"/>
<path d="M24.3028 20.9984C23.9205 20.9984 23.6105 21.3054 23.6105 21.6841C23.6105 22.0628 23.9205 22.3698 24.3028 22.3698H25.1965C25.2708 22.3698 25.3452 22.3757 25.4185 22.3873C26.9076 22.6226 28.0033 23.8949 28.0033 25.3885C28.0033 25.801 27.6657 26.1354 27.2492 26.1354H25.3632C24.9808 26.1354 24.6709 26.4424 24.6709 26.8211C24.6709 27.1998 24.9808 27.5068 25.3632 27.5068H27.2492C28.4304 27.5068 29.3879 26.5584 29.3879 25.3885C29.3879 23.2209 27.7978 21.3746 25.6367 21.033C25.4911 21.01 25.3438 20.9984 25.1965 20.9984H24.3028Z" fill="white" fill-opacity="0.4"/>
</svg>
