<svg width="215" height="119" viewBox="0 0 215 119" fill="none" xmlns="http://www.w3.org/2000/svg">
<g clip-path="url(#clip0)">
<path d="M71.0503 12.8C69.2503 11 66.8503 10 64.2503 10C61.6503 10 59.2503 11 57.4503 12.8L14.2503 56C13.7503 56.5 13.3503 57 12.9503 57.6C9.25031 62 9.35031 68.2 13.3503 72.5C22.4503 82.2 32.2503 91.4 41.7503 100.9C46.3503 105.5 50.9503 110.1 55.5503 114.7C57.5503 116.7 59.7503 118.4 62.7503 118.8C66.8503 119.4 70.1503 117.6 72.8503 114.8C82.0503 105.6 91.3503 96.3 100.55 87.1C102.65 87.8 103.65 89.7 105.55 91C107.15 92 109.15 92.6 111.05 92.5C114.75 92.3 117.75 90.1 119.35 86.9C120.45 86.9 121.65 86.9 122.75 86.9C125.95 86.9 130.75 87.8 133.35 85.5C133.95 84.9 135.05 84.1 135.55 83.4C135.75 83.6 135.95 83.7 135.95 83.8C137.65 85.5 139.25 87 141.75 86.9C144.15 86.8 145.65 85.4 147.15 83.8C147.65 83.3 148.25 82.6 148.75 82.1C148.85 82.1 149.05 82.1 149.15 82.1C149.65 82.2 150.15 82.1 150.65 82.1C151.25 82.1 151.85 82.2 152.45 82.1C153.05 82.7 153.75 83.4 154.35 84C156.05 85.7 157.85 87.1 160.45 86.9C162.65 86.7 164.15 85.3 165.55 83.8C166.05 83.3 166.65 82.5 167.25 82C167.35 82 167.45 82 167.55 82C167.95 82.1 168.45 82 168.85 82C169.75 82 170.85 82.2 171.85 82.1C171.85 82.5 172.35 83.3 172.55 83.6C173.95 85.5 176.25 85.3 178.25 85.3C179.25 85.3 180.15 85.2 181.05 84.7C181.65 84.3 183.05 83 182.95 82.1C183.15 82.1 183.25 82.1 183.35 82.1C183.55 82.1 183.65 82.1 183.65 82C184.35 82.5 184.95 83.3 185.55 83.9C187.05 85.4 188.35 86.9 190.65 86.8C193.95 86.6 197.25 84.7 199.65 82.6C202.25 80.5 204.75 78.2 207.25 76C210.35 73.3 213.95 70.9 214.55 66.5C215.05 63.4 214.05 61 212.45 59C211.95 58 211.25 57.1 210.35 56.3L198.75 46.2C195.75 43.6 191.95 42.2 187.95 42.2H118.75C118.45 41.7 118.05 41.1 117.65 40.7C116.15 38.3 113.45 36.7 110.55 36.7C107.95 36.7 105.55 37.9 103.95 39.9C102.95 41.2 101.55 42 100.05 42.2L71.0503 12.8ZM34.7503 66.7C34.5503 66.3 34.3503 65.8 34.2503 65.2C34.0503 63 35.7503 61 37.9503 60.9C41.7503 60.7 42.9503 64.6 41.3503 67C40.6503 67.5 39.9503 67.9 39.0503 68C37.5503 68.2 35.9503 67.8 34.7503 66.7Z" fill="#E4E5E6" fill-opacity="0.26"/>
<path d="M53.4492 0.799707C47.8492 1.19971 43.9492 6.49971 40.2492 10.1997C34.2492 16.1997 28.2492 22.1997 22.3492 28.0997C16.9492 33.4997 11.6492 38.7997 6.24922 44.1997C5.24922 45.1997 4.24922 46.0997 3.34922 47.0997C-0.850781 51.4997 -0.850781 58.0997 3.34922 62.4997C12.4492 72.1997 22.2492 81.3997 31.7492 90.8997C36.3492 95.4997 40.9492 100.1 45.5492 104.7C47.5492 106.7 49.7492 108.4 52.7492 108.8C56.8492 109.4 60.1492 107.6 62.8492 104.8C72.0492 95.5997 81.3492 86.2997 90.5492 77.0997C92.6492 77.7997 93.6492 79.6997 95.5492 80.9997C97.1492 81.9997 99.1492 82.5997 101.049 82.4997C104.749 82.2997 107.749 80.0997 109.349 76.8997C110.449 76.8997 111.649 76.8997 112.749 76.8997C115.949 76.8997 120.749 77.7997 123.349 75.4997C123.949 74.8997 125.049 74.0997 125.549 73.3997C125.749 73.5997 125.949 73.6997 125.949 73.7997C127.649 75.4997 129.249 76.9997 131.749 76.8997C134.149 76.7997 135.649 75.3997 137.149 73.7997C137.649 73.2997 138.249 72.5997 138.749 72.0997C138.849 72.0997 139.049 72.0997 139.149 72.0997C139.649 72.1997 140.149 72.0997 140.649 72.0997C141.249 72.0997 141.849 72.1997 142.449 72.0997C143.049 72.6997 143.749 73.3997 144.349 73.9997C146.049 75.6997 147.849 77.0997 150.449 76.8997C152.649 76.6997 154.149 75.2997 155.549 73.7997C156.049 73.2997 156.649 72.4997 157.249 71.9997C157.349 71.9997 157.449 71.9997 157.549 71.9997C157.949 72.0997 158.449 71.9997 158.849 71.9997C159.749 71.9997 160.849 72.1997 161.849 72.0997C161.849 72.4997 162.349 73.2997 162.549 73.5997C163.949 75.4997 166.249 75.2997 168.249 75.2997C169.249 75.2997 170.149 75.1997 171.049 74.6997C171.649 74.2997 173.049 72.9997 172.949 72.0997C173.149 72.0997 173.249 72.0997 173.349 72.0997C173.549 72.0997 173.649 72.0997 173.649 71.9997C174.349 72.4997 174.949 73.2997 175.549 73.8997C177.049 75.3997 178.349 76.8997 180.649 76.7997C183.949 76.5997 187.249 74.6997 189.649 72.5997C192.249 70.4997 194.749 68.1997 197.249 65.9997C200.349 63.2997 203.949 60.8997 204.549 56.4997C205.349 51.3997 202.249 48.1997 198.749 45.1997C195.849 42.5997 192.849 40.0997 189.849 37.4997C186.349 34.5997 182.249 32.9997 177.749 32.8997C175.949 32.8997 174.249 32.8997 172.449 32.8997C164.449 32.8997 156.549 32.8997 148.549 32.8997C135.449 32.8997 122.349 32.8997 109.249 32.8997C107.649 29.6997 104.649 27.4997 100.949 27.2997C99.0492 27.1997 97.0492 27.7997 95.4492 28.7997C93.5492 29.9997 92.5492 31.8997 90.4492 32.6997C81.0492 22.9997 71.4492 13.4997 61.9492 3.89971C59.5492 1.79971 56.6492 0.499707 53.4492 0.799707ZM24.2492 55.1997C24.0492 52.9997 25.7492 50.9997 27.9492 50.8997C33.0492 50.5997 33.4492 57.5997 28.8492 58.7997C26.6492 58.8997 24.5492 57.5997 24.2492 55.1997ZM125.049 72.8997C125.049 72.8997 124.949 72.8997 125.049 72.7997C124.949 72.7997 125.049 72.8997 125.049 72.8997ZM157.249 71.8997C157.149 71.9997 157.149 71.8997 157.249 71.8997V71.8997Z" fill="#9B560A"/>
<path d="M52.25 13.4998L14.95 50.7998C13.85 51.8998 13.85 53.6998 14.95 54.7998L52.25 92.0998C53.35 93.1998 55.15 93.1998 56.25 92.0998L93.55 54.7998C94.65 53.6998 94.65 51.8998 93.55 50.7998L56.25 13.4998C55.15 12.3998 53.35 12.3998 52.25 13.4998ZM34.55 53.8998C34.15 56.5998 31.95 58.6998 29.35 59.0998C24.95 59.7998 21.15 56.0998 21.95 51.6998C22.35 48.9998 24.55 46.8998 27.15 46.4998C31.55 45.7998 35.35 49.4998 34.55 53.8998Z" fill="#FBCC34"/>
<path d="M14.0496 50L51.3496 12.7C52.9496 11.1 55.5496 11.1 57.0496 12.7L94.3496 50C95.1496 50.8 95.5496 51.8 95.5496 52.9C95.5496 54 95.1496 55 94.3496 55.8L57.1496 93C55.5496 94.6 52.9496 94.6 51.4496 93L14.0496 55.7C13.2496 54.9 12.8496 53.9 12.8496 52.8C12.8496 51.8 13.2496 50.8 14.0496 50ZM92.6496 51.7L55.3496 14.4C54.7496 13.8 53.6496 13.8 53.0496 14.4L15.7496 51.7C15.1496 52.3 15.1496 53.4 15.7496 54L53.0496 91.3C53.6496 91.9 54.7496 91.9 55.3496 91.3L92.6496 54C92.9496 53.7 93.1496 53.3 93.1496 52.9C93.1496 52.4 92.9496 52 92.6496 51.7ZM20.7496 51.6C21.2496 48.4 23.8496 45.9 26.9496 45.4C29.4496 45 31.8496 45.8 33.6496 47.5C35.4496 49.3 36.1496 51.7 35.7496 54.2C35.2496 57.4 32.6496 59.9 29.5496 60.4C27.0496 60.8 24.6496 60 22.8496 58.3C21.3496 56.8 20.6496 54.9 20.6496 52.9C20.6496 52.4 20.6496 52 20.7496 51.6ZM31.9496 49.2C30.7496 48 29.0496 47.5 27.3496 47.7C25.2496 48.1 23.4496 49.8 23.1496 51.9C22.8496 53.6 23.3496 55.3 24.6496 56.5C25.8496 57.7 27.5496 58.2 29.2496 58C31.3496 57.6 33.1496 55.9 33.4496 53.8C33.4496 53.5 33.5496 53.2 33.5496 52.9C33.4496 51.5 32.9496 50.2 31.9496 49.2Z" fill="#9B560A"/>
<path d="M48.2492 3.69961L5.04922 46.8996C1.74922 50.1996 1.74922 55.5996 5.04922 58.8996L48.2492 102C51.5492 105.3 56.9492 105.3 60.2492 102L89.7492 72.4996C91.8492 72.5996 93.7492 73.6996 95.0492 75.2996C96.3492 76.9996 98.3492 77.9996 100.649 77.9996C104.049 77.9996 106.949 75.5996 107.649 72.3996H120.249C120.649 72.3996 121.049 72.1996 121.349 71.8996L124.349 68.8996C124.949 68.2996 125.949 68.2996 126.649 68.8996L129.049 71.2996C130.049 72.2996 131.649 72.6996 133.049 71.9996C133.449 71.7996 133.849 71.5996 134.149 71.1996L137.449 67.8996C137.749 67.5996 138.149 67.3996 138.549 67.3996H142.949C143.349 67.3996 143.749 67.5996 144.049 67.8996L147.349 71.1996C148.349 72.1996 150.049 72.5996 151.449 71.9996C151.849 71.7996 152.249 71.4996 152.549 71.1996L155.849 67.8996C156.149 67.5996 156.549 67.3996 156.949 67.3996H162.549C163.449 67.3996 164.149 68.0996 164.149 68.9996C164.149 69.8996 164.849 70.5996 165.749 70.5996H168.949C169.849 70.5996 170.549 69.8996 170.549 68.9996C170.549 68.0996 171.249 67.3996 172.149 67.3996H174.049C174.449 67.3996 174.849 67.5996 175.149 67.8996L178.949 71.6996C179.349 72.0996 179.849 72.1996 180.349 72.1996C183.149 71.7996 185.749 70.4996 187.949 68.6996L199.549 58.5996C203.049 55.4996 203.049 49.9996 199.549 46.9996L188.049 36.9996C185.249 34.5996 181.749 33.2996 178.049 33.2996H107.549C106.849 30.0996 103.949 27.6996 100.549 27.6996C98.2492 27.6996 96.2492 28.7996 94.9492 30.3996C93.6492 32.0996 91.7492 33.0996 89.6492 33.1996L60.2492 3.69961C56.9492 0.399609 51.5492 0.399609 48.2492 3.69961ZM56.2492 13.4996L83.6492 40.9996V64.7996L56.2492 92.0996C55.1492 93.1996 53.3492 93.1996 52.2492 92.0996L14.9492 54.8996C13.8492 53.7996 13.8492 51.9996 14.9492 50.8996L52.2492 13.4996C53.3492 12.3996 55.1492 12.3996 56.2492 13.4996Z" fill="#FFE89B"/>
<path d="M54.2492 0C51.6492 0 49.2492 1 47.4492 2.8L4.24922 46C2.34922 47.9 1.44922 50.4 1.44922 52.8C1.44922 55.3 2.34922 57.8 4.24922 59.6L47.4492 102.8C49.2492 104.6 51.7492 105.6 54.2492 105.6C56.8492 105.6 59.2492 104.6 61.0492 102.8L90.2492 73.7C91.7492 73.9 93.1492 74.8 94.1492 76C95.7492 78 98.1492 79.2 100.749 79.2C104.349 79.2 107.449 76.9 108.649 73.6H120.249C121.049 73.6 121.749 73.3 122.249 72.8L125.249 69.8C125.349 69.7 125.449 69.7 125.549 69.7C125.649 69.7 125.749 69.7 125.849 69.8L128.249 72.2C129.649 73.6 131.749 74 133.649 73.2C134.149 73 134.649 72.6 135.149 72.2L138.449 68.9C138.549 68.8 138.649 68.8 138.749 68.8H143.149C143.249 68.8 143.349 68.8 143.449 68.9L146.749 72.2C148.149 73.6 150.349 74 152.249 73.2C152.749 73 153.249 72.6 153.749 72.2L157.049 68.9C157.149 68.8 157.249 68.8 157.349 68.8H162.949C163.149 68.8 163.349 69 163.349 69.2C163.349 70.8 164.649 72 166.149 72H169.349C170.849 72 172.149 70.8 172.149 69.2C172.149 69 172.249 68.8 172.549 68.8H174.449C174.549 68.8 174.649 68.8 174.749 68.9L178.549 72.7C179.149 73.3 180.149 73.6 181.049 73.5C184.049 73 186.949 71.7 189.249 69.7L200.849 59.6C202.849 57.9 203.949 55.4 203.949 52.9C203.949 50.3 202.849 47.9 200.849 46.2L189.249 36.1C186.249 33.5 182.449 32.1 178.449 32.1H108.949C107.749 28.8 104.649 26.5 101.049 26.5C98.4492 26.5 96.0492 27.7 94.4492 29.7C93.4492 31 92.0492 31.8 90.5492 32L61.0492 2.8C59.2492 1 56.8492 0 54.2492 0ZM200.949 51.6H116.249C112.349 51.6 108.449 50.7 104.949 49.1C104.149 48.7 103.649 48 103.649 47.1C103.649 46.3 104.149 45.5 104.949 45.1C108.449 43.4 112.349 42.6 116.249 42.6H192.449V42.5L198.749 48C199.949 48.9 200.749 50.2 200.949 51.6ZM120.249 71.2H108.949V68.7C108.949 65 111.949 62 115.649 62H194.049L187.349 67.8C185.349 69.5 182.949 70.6 180.349 71C180.249 71 180.049 71 179.949 70.9L176.149 67.1C175.649 66.6 174.949 66.3 174.149 66.3H172.249C170.749 66.3 169.449 67.5 169.449 69.1C169.449 69.3 169.249 69.5 169.049 69.5H165.849C165.649 69.5 165.449 69.3 165.449 69.1C165.449 67.6 164.149 66.3 162.649 66.3H157.049C156.249 66.3 155.549 66.6 155.049 67.1L151.749 70.4C151.549 70.6 151.249 70.8 151.049 70.9C150.049 71.3 149.049 71.1 148.249 70.4L144.949 67.1C144.449 66.6 143.749 66.3 142.949 66.3H138.549C137.749 66.3 137.049 66.6 136.549 67.1L133.249 70.4C133.049 70.6 132.749 70.8 132.549 70.9C131.649 71.3 130.649 71.1 129.949 70.4L127.549 68C127.049 67.5 126.349 67.2 125.549 67.2C124.749 67.2 124.049 67.5 123.549 68L120.549 71C120.449 71.2 120.349 71.2 120.249 71.2ZM54.2492 2.4C56.1492 2.4 57.9492 3.2 59.3492 4.5L89.2492 34.5H89.7492C92.1492 34.4 94.4492 33.2 95.9492 31.2C97.0492 29.8 98.7492 28.9 100.549 28.9C103.249 28.9 105.749 30.8 106.349 33.5L106.549 34.5H177.949C181.349 34.5 184.549 35.7 187.149 37.9L189.749 40.2H116.249C111.949 40.2 107.749 41.2 103.949 43C102.249 43.8 101.249 45.4 101.249 47.2C101.249 49 102.249 50.6 103.949 51.4C107.749 53.2 112.049 54.2 116.249 54.2H200.849C200.549 55.6 199.849 56.9 198.749 57.9L196.649 59.7H115.449C110.449 59.7 106.349 63.8 106.349 68.8V72L106.249 72.3C105.649 75 103.249 76.9 100.449 76.9C98.6492 76.9 96.9492 76.1 95.8492 74.6C94.3492 72.6 92.0492 71.4 89.6492 71.3H89.1492L59.2492 101.2C57.8492 102.6 56.0492 103.3 54.1492 103.3C52.2492 103.3 50.4492 102.5 49.0492 101.2L5.94922 58C3.14922 55.2 3.14922 50.6 5.94922 47.8L49.1492 4.6C50.4492 3.2 52.2492 2.4 54.2492 2.4Z" fill="#9B560A"/>
<path d="M57.1496 12.7C55.5496 11.1 52.9496 11.1 51.4496 12.7L14.0496 50C13.2496 50.8 12.8496 51.8 12.8496 52.9C12.8496 53.9 13.2496 55 14.0496 55.8L51.3496 93C52.9496 94.6 55.5496 94.6 57.0496 93L84.8496 65.2V40.4L57.1496 12.7ZM53.0496 14.4C53.6496 13.8 54.7496 13.8 55.3496 14.4L82.4496 41.5V64.3L55.3496 91.3C54.7496 91.9 53.6496 91.9 53.0496 91.3L15.7496 54C15.1496 53.4 15.1496 52.3 15.7496 51.7L53.0496 14.4Z" fill="#9B560A"/>
<path d="M103.75 47.1C103.75 46.3 104.25 45.5 105.05 45.1C108.55 43.4 112.45 42.6 116.35 42.6H192.55V42.5L198.85 48C199.95 49 200.65 50.3 200.95 51.7H116.25C112.35 51.7 108.45 50.8 104.95 49.2C104.25 48.7 103.75 48 103.75 47.1Z" fill="#FBCC34"/>
<path d="M115.649 62H194.049L187.349 67.8C185.349 69.5 182.949 70.6 180.349 71C180.249 71 180.049 71 179.949 70.9L176.149 67.1C175.649 66.6 174.949 66.3 174.149 66.3H172.249C170.749 66.3 169.449 67.5 169.449 69.1C169.449 69.3 169.249 69.5 169.049 69.5H165.849C165.649 69.5 165.449 69.3 165.449 69.1C165.449 67.6 164.149 66.3 162.649 66.3H157.049C156.249 66.3 155.549 66.6 155.049 67.1L151.749 70.4C151.549 70.6 151.249 70.8 151.049 70.9C150.049 71.3 149.049 71.1 148.249 70.4L144.949 67.1C144.449 66.6 143.749 66.3 142.949 66.3H138.549C137.749 66.3 137.049 66.6 136.549 67.1L133.249 70.4C133.049 70.6 132.749 70.8 132.549 70.9C131.649 71.3 130.649 71.1 129.949 70.4L127.549 68C127.049 67.5 126.349 67.2 125.549 67.2C124.749 67.2 124.049 67.5 123.549 68L120.549 71C120.449 71.1 120.349 71.1 120.249 71.1H108.949V68.6C108.949 65 111.949 62 115.649 62Z" fill="#FBCC34"/>
<path d="M57.1496 12.7C55.5496 11.1 52.9496 11.1 51.4496 12.7L14.0496 50C13.2496 50.8 12.8496 51.8 12.8496 52.9C12.8496 53.9 13.2496 55 14.0496 55.8L51.3496 93C52.9496 94.6 55.5496 94.6 57.0496 93L84.8496 65.2V40.4L57.1496 12.7ZM53.0496 14.4C53.6496 13.8 54.7496 13.8 55.3496 14.4L82.4496 41.5V64.3L55.3496 91.3C54.7496 91.9 53.6496 91.9 53.0496 91.3L15.7496 54C15.1496 53.4 15.1496 52.3 15.7496 51.7L53.0496 14.4Z" fill="#9B560A"/>
<path d="M68.0496 44.8V60.9C68.0496 64.1 65.4496 66.7 62.2496 66.7H46.1496C42.9496 66.7 40.3496 64.1 40.3496 60.9V44.8C40.3496 41.6 42.9496 39 46.1496 39H62.2496C65.4496 39 68.0496 41.6 68.0496 44.8Z" fill="#FFE89B"/>
<path d="M46.1488 37.7998H62.2488C66.1488 37.7998 69.3488 40.9998 69.3488 44.8998V60.9998C69.3488 64.8998 66.1488 68.0998 62.2488 68.0998H46.1488C42.2488 68.0998 39.0488 64.8998 39.0488 60.9998V44.7998C39.1488 40.8998 42.3488 37.7998 46.1488 37.7998ZM66.8488 44.7998C66.8488 42.2998 64.7488 40.1998 62.2488 40.1998H46.1488C43.6488 40.1998 41.5488 42.2998 41.5488 44.7998V60.8998C41.5488 63.3998 43.6488 65.4998 46.1488 65.4998H62.2488C64.7488 65.4998 66.8488 63.3998 66.8488 60.8998V44.7998Z" fill="#9B560A"/>
</g>
<defs>
<clipPath id="clip0">
<rect width="214.5" height="118.8" fill="white" transform="translate(0.25)"/>
</clipPath>
</defs>
</svg>
