<svg width="18" height="18" viewBox="0 0 18 18" fill="none" xmlns="http://www.w3.org/2000/svg">
<path d="M2.00183 12.3834C1.99551 12.4621 2.0056 12.5413 2.03145 12.6159C2.0573 12.6905 2.09835 12.759 2.15201 12.817C2.20567 12.8749 2.27077 12.9211 2.3432 12.9526C2.41562 12.9841 2.4938 13.0002 2.57278 13H15.0994C15.1784 13.0002 15.2566 12.9841 15.329 12.9526C15.4015 12.9211 15.4666 12.8749 15.5202 12.817C15.5739 12.759 15.6149 12.6905 15.6408 12.6159C15.6666 12.5413 15.6767 12.4621 15.6704 12.3834C15.5797 11.4189 15.2855 10.4845 14.8072 9.64209C14.3289 8.79963 13.6773 8.06819 12.8956 7.49603L13.9005 5.87453C13.9402 5.8108 13.967 5.73986 13.9793 5.66577C13.9916 5.59169 13.9892 5.5159 13.9723 5.44273C13.9553 5.36957 13.9241 5.30046 13.8804 5.23936C13.8368 5.17826 13.7815 5.12635 13.7177 5.08661C13.589 5.00636 13.4337 4.98052 13.286 5.01478C13.1382 5.04905 13.0101 5.14061 12.9298 5.26932L11.925 6.89082C10.9757 6.39925 9.92226 6.1427 8.85324 6.1427C7.78423 6.1427 6.73082 6.39925 5.78153 6.89082L4.76523 5.28074C4.7255 5.21701 4.67359 5.16173 4.61249 5.11805C4.55139 5.07438 4.48228 5.04317 4.40912 5.0262C4.33595 5.00924 4.26016 5.00685 4.18607 5.01917C4.11199 5.0315 4.04105 5.05829 3.97732 5.09803C3.91359 5.13777 3.85831 5.18967 3.81464 5.25078C3.77096 5.31188 3.73975 5.38099 3.72279 5.45415C3.70582 5.52731 3.70343 5.6031 3.71576 5.67719C3.72808 5.75128 3.75488 5.82221 3.79462 5.88595L4.79949 7.49603C4.01351 8.06595 3.35763 8.7964 2.87532 9.63898C2.393 10.4816 2.09526 11.417 2.00183 12.3834ZM11.708 9.57429C11.8209 9.57429 11.9313 9.60778 12.0252 9.67051C12.1191 9.73325 12.1923 9.82242 12.2355 9.92675C12.2787 10.0311 12.29 10.1459 12.268 10.2566C12.246 10.3674 12.1916 10.4691 12.1117 10.549C12.0319 10.6288 11.9301 10.6832 11.8194 10.7052C11.7086 10.7273 11.5938 10.7159 11.4895 10.6727C11.3852 10.6295 11.296 10.5563 11.2333 10.4624C11.1705 10.3686 11.137 10.2582 11.137 10.1452C11.137 9.99382 11.1972 9.84859 11.3043 9.74152C11.4114 9.63444 11.5566 9.57429 11.708 9.57429ZM6.56944 10.1452C6.56944 10.2582 6.53595 10.3686 6.47322 10.4624C6.41048 10.5563 6.32131 10.6295 6.21698 10.6727C6.11265 10.7159 5.99785 10.7273 5.8871 10.7052C5.77635 10.6832 5.67461 10.6288 5.59476 10.549C5.51492 10.4691 5.46054 10.3674 5.43851 10.2566C5.41648 10.1459 5.42778 10.0311 5.471 9.92675C5.51421 9.82242 5.58739 9.73325 5.68128 9.67051C5.77518 9.60778 5.88557 9.57429 5.99849 9.57429C6.14991 9.57429 6.29514 9.63444 6.40221 9.74152C6.50929 9.84859 6.56944 9.99382 6.56944 10.1452Z" fill="white"/>
</svg>
