<svg width="60" height="60" viewBox="0 0 60 60" fill="none" xmlns="http://www.w3.org/2000/svg">
<rect width="60" height="60" rx="8" fill="#7E92FB"/>
<g opacity="0.4">
<path d="M36.3143 14.9571C36.3143 14.1524 36.9667 13.5 37.7714 13.5C42.8682 13.5 47 17.6318 47 22.7286C47 23.5333 46.3476 24.1857 45.5429 24.1857C44.7381 24.1857 44.0857 23.5333 44.0857 22.7286C44.0857 19.2413 41.2587 16.4143 37.7714 16.4143C36.9667 16.4143 36.3143 15.7619 36.3143 14.9571Z" fill="white"/>
<path d="M15.9143 38.2714C15.9143 37.4667 15.2619 36.8143 14.4571 36.8143C13.6524 36.8143 13 37.4667 13 38.2714C13 43.3682 17.1318 47.5 22.2286 47.5C23.0333 47.5 23.6857 46.8476 23.6857 46.0429C23.6857 45.2381 23.0333 44.5857 22.2286 44.5857C18.7413 44.5857 15.9143 41.7587 15.9143 38.2714Z" fill="white"/>
<path d="M13 22.7286C13 17.6318 17.1318 13.5 22.2286 13.5C23.0333 13.5 23.6857 14.1524 23.6857 14.9571C23.6857 15.7619 23.0333 16.4143 22.2286 16.4143C18.7413 16.4143 15.9143 19.2413 15.9143 22.7286C15.9143 23.5333 15.2619 24.1857 14.4571 24.1857C13.6524 24.1857 13 23.5333 13 22.7286Z" fill="white"/>
<path d="M47 38.2714C47 37.4667 46.3476 36.8143 45.5429 36.8143C44.7381 36.8143 44.0857 37.4667 44.0857 38.2714C44.0857 41.7587 41.2587 44.5857 37.7714 44.5857C36.9667 44.5857 36.3143 45.2381 36.3143 46.0429C36.3143 46.8476 36.9667 47.5 37.7714 47.5C42.8682 47.5 47 43.3682 47 38.2714Z" fill="white"/>
</g>
<path d="M30.4849 20.2998C27.8024 20.2998 25.6278 22.4744 25.6278 25.1569C25.6278 27.8395 27.8024 30.0141 30.4849 30.0141C33.1675 30.0141 35.3421 27.8395 35.3421 25.1569C35.3421 22.4744 33.1675 20.2998 30.4849 20.2998Z" fill="white"/>
<path d="M27.2106 31.4897C24.8996 31.8585 23.1992 33.8518 23.1992 36.1919V36.5515C23.1992 38.306 24.6216 39.7284 26.3761 39.7284H34.5938C36.3483 39.7284 37.7706 38.306 37.7706 36.5515V36.1919C37.7706 33.8518 36.0702 31.8585 33.7593 31.4897C31.5901 31.1435 29.3797 31.1435 27.2106 31.4897Z" fill="white"/>
</svg>
