<svg width="60" height="61" viewBox="0 0 60 61" fill="none" xmlns="http://www.w3.org/2000/svg">
<rect y="0.995117" width="60" height="60" rx="8" fill="white"/>
<path fill-rule="evenodd" clip-rule="evenodd" d="M25.481 18.7179C28.458 18.094 31.5433 18.094 34.5203 18.7179L35.1431 18.8484C37.7122 19.3868 39.9453 20.7468 41.5189 22.6298C41.7758 22.9372 41.6895 23.3803 41.3501 23.605L31.9475 29.8314C30.7786 30.6055 29.2227 30.6055 28.0537 29.8314L18.6512 23.605C18.3118 23.3803 18.2255 22.9372 18.4824 22.6298C20.056 20.7468 22.2891 19.3868 24.8582 18.8484L25.481 18.7179ZM17.7109 25.5959C17.3171 25.3352 16.7683 25.4846 16.6192 25.9169C16.536 26.1583 16.4615 26.4036 16.3962 26.6525C15.6466 29.5075 15.6466 32.4925 16.3962 35.3475C17.4226 39.2572 20.7005 42.2802 24.8582 43.1516L25.481 43.2821C28.458 43.906 31.5433 43.906 34.5203 43.2821L35.1431 43.1516C39.3008 42.2802 42.5787 39.2572 43.6052 35.3475C44.3547 32.4925 44.3547 29.5075 43.6052 26.6525C43.5398 26.4036 43.4653 26.1583 43.3821 25.9169C43.233 25.4846 42.6842 25.3352 42.2904 25.5959L33.2454 31.5854C31.2972 32.8756 28.7041 32.8756 26.7558 31.5854L17.7109 25.5959Z" fill="#F56666"/>
</svg>
