<svg width="60" height="60" viewBox="0 0 60 60" fill="none" xmlns="http://www.w3.org/2000/svg">
<rect width="60" height="60" rx="8" fill="white" fill-opacity="0.35"/>
<path d="M34.7617 17.7098C32.9835 13.4301 27.0165 13.4301 25.2383 17.7098L24.3061 19.9531C23.935 20.8464 23.1262 21.4538 22.2018 21.5585L19.6006 21.853C15.2035 22.3509 13.4488 27.8248 16.6105 30.8815L18.819 33.0167C19.4715 33.6475 19.7649 34.5832 19.585 35.4933L19.0517 38.1904C18.1664 42.6683 22.9917 46.1637 26.8798 43.6676L28.6242 42.5476C29.4661 42.0071 30.5339 42.0071 31.3758 42.5476L33.1202 43.6676C37.0083 46.1637 41.8336 42.6683 40.9483 38.1904L40.415 35.4933C40.2351 34.5832 40.5285 33.6475 41.181 33.0167L43.3895 30.8815C46.5512 27.8248 44.7965 22.3509 40.3994 21.853L37.7982 21.5585C36.8738 21.4538 36.065 20.8464 35.6939 19.9531L34.7617 17.7098Z" fill="#F9CB7A"/>
</svg>
