<svg width="40" height="40" viewBox="0 0 40 40" fill="none" xmlns="http://www.w3.org/2000/svg">
<rect width="40" height="40" rx="8" fill="#FFBFE9"/>
<path fill-rule="evenodd" clip-rule="evenodd" d="M16.9516 9C17.5395 9 18.0161 9.4766 18.0161 10.0645V12.3927C18.4851 12.2859 18.9592 12.2097 19.4355 12.1642V10.0645C19.4355 9.4766 19.9121 9 20.5 9C21.0879 9 21.5645 9.4766 21.5645 10.0645V12.1642C22.0408 12.2097 22.5149 12.2859 22.9838 12.3927V10.0645C22.9838 9.4766 23.4604 9 24.0483 9C24.6362 9 25.1128 9.4766 25.1128 10.0645V13.2699C25.9676 13.8084 26.6916 14.5323 27.23 15.3871H30.4355C31.0234 15.3871 31.5 15.8637 31.5 16.4516C31.5 17.0395 31.0234 17.5161 30.4355 17.5161H28.1073C28.2141 17.9851 28.2902 18.4592 28.3357 18.9355H30.4355C31.0234 18.9355 31.5 19.4121 31.5 20C31.5 20.5879 31.0234 21.0645 30.4355 21.0645H28.3357C28.2902 21.5408 28.2141 22.0149 28.1073 22.4839H30.4355C31.0234 22.4839 31.5 22.9605 31.5 23.5484C31.5 24.1363 31.0234 24.6129 30.4355 24.6129H27.23C26.6916 25.4677 25.9676 26.1916 25.1128 26.7301V29.9355C25.1128 30.5234 24.6362 31 24.0483 31C23.4604 31 22.9838 30.5234 22.9838 29.9355V27.6073C22.5149 27.7141 22.0408 27.7903 21.5645 27.8358V29.9355C21.5645 30.5234 21.0879 31 20.5 31C19.9121 31 19.4355 30.5234 19.4355 29.9355V27.8358C18.9592 27.7903 18.4851 27.7141 18.0161 27.6073V29.9355C18.0161 30.5234 17.5395 31 16.9516 31C16.3637 31 15.8871 30.5234 15.8871 29.9355V26.7301C15.0323 26.1916 14.3084 25.4677 13.7699 24.6129H10.5645C9.9766 24.6129 9.5 24.1363 9.5 23.5484C9.5 22.9605 9.9766 22.4839 10.5645 22.4839H12.8927C12.7859 22.0149 12.7097 21.5408 12.6642 21.0645H10.5645C9.9766 21.0645 9.5 20.5879 9.5 20C9.5 19.4121 9.9766 18.9355 10.5645 18.9355H12.6642C12.7097 18.4592 12.7859 17.9851 12.8927 17.5161H10.5645C9.9766 17.5161 9.5 17.0395 9.5 16.4516C9.5 15.8637 9.9766 15.3871 10.5645 15.3871H13.7699C14.3084 14.5323 15.0323 13.8084 15.8871 13.2699V10.0645C15.8871 9.4766 16.3637 9 16.9516 9ZM19.7698 18.2073C20.2501 18.0946 20.7499 18.0946 21.2301 18.2073C21.7573 18.331 22.169 18.7426 22.2927 19.2698C22.4053 19.7501 22.4053 20.2499 22.2927 20.7302C22.169 21.2574 21.7573 21.669 21.2301 21.7927C20.7499 21.9054 20.2501 21.9054 19.7698 21.7927C19.2426 21.669 18.8309 21.2574 18.7072 20.7302C18.5946 20.2499 18.5946 19.7501 18.7072 19.2698C18.8309 18.7426 19.2426 18.331 19.7698 18.2073ZM21.6191 16.5491C20.883 16.3764 20.1169 16.3764 19.3808 16.5491C18.2238 16.8205 17.3204 17.7239 17.049 18.8809C16.8764 19.617 16.8764 20.383 17.049 21.1191C17.3204 22.2761 18.2238 23.1795 19.3808 23.4509C20.1169 23.6236 20.883 23.6236 21.6191 23.4509C22.7761 23.1795 23.6795 22.2761 23.9509 21.1191C24.1235 20.383 24.1235 19.617 23.9509 18.8809C23.6795 17.7239 22.7761 16.8205 21.6191 16.5491Z" fill="white"/>
</svg>
