<svg width="32" height="32" viewBox="0 0 32 32" fill="none" xmlns="http://www.w3.org/2000/svg">
<path d="M16 32C24.8366 32 32 24.8366 32 16C32 7.16344 24.8366 0 16 0C7.16344 0 0 7.16344 0 16C0 24.8366 7.16344 32 16 32Z" fill="#D2D9E4"/>
<path fill-rule="evenodd" clip-rule="evenodd" d="M24.1602 21.4986L21.2115 24L16.0308 17.9737L10.9328 23.9793L8.16016 21.1272C9.68349 19.2038 11.6828 17.1917 13.7348 15.3216L8.29149 9.02338L9.18682 8.032C10.5055 8.92204 13.1742 10.9475 15.9902 13.3376C18.8595 10.8908 21.5275 8.89537 22.8095 8L23.7755 8.85204L18.2728 15.335C20.4642 17.3171 22.6622 19.5711 24.1602 21.4986Z" fill="white"/>
</svg>
