<svg width="40" height="40" viewBox="0 0 40 40" fill="none" xmlns="http://www.w3.org/2000/svg">
<rect width="40" height="40" rx="8" fill="#8FA7F8"/>
<path fill-rule="evenodd" clip-rule="evenodd" d="M26.0175 9.53349C22.3463 8.82217 18.5709 8.82217 14.8998 9.53349C12.6004 9.97901 10.75 11.6698 10.1152 13.9052L10.0612 14.0955C9.31295 16.7303 9.31295 19.5187 10.0612 22.1536L10.1152 22.3438C10.75 24.5793 12.6004 26.27 14.8998 26.7155C16.4444 27.0148 18.0075 27.1882 19.5735 27.2356V29.5308H17.5081C17.0192 29.5308 16.6229 29.9237 16.6229 30.4082C16.6229 30.8928 17.0192 31.2856 17.5081 31.2856H23.4092C23.8981 31.2856 24.2944 30.8928 24.2944 30.4082C24.2944 29.9237 23.8981 29.5308 23.4092 29.5308H21.3438V27.2356C22.9098 27.1882 24.4729 27.0148 26.0175 26.7155C28.3169 26.27 30.1673 24.5793 30.8021 22.3438L30.8561 22.1535C31.6043 19.5187 31.6043 16.7303 30.8561 14.0955L30.8021 13.9052C30.1673 11.6698 28.3169 9.97901 26.0175 9.53349ZM23.0977 19.5223C23.1075 19.5135 23.1173 19.5048 23.1271 19.496L25.0632 17.7688C25.3539 17.5095 25.3774 17.0657 25.1158 16.7775C24.8542 16.4894 24.4064 16.466 24.1157 16.7254L22.1796 18.4526C21.9901 18.6216 21.8674 18.7299 21.7755 18.8016C21.7044 18.7096 21.6125 18.5746 21.471 18.3643L20.6247 17.106C20.6174 17.0951 20.6101 17.0842 20.6028 17.0733C20.446 16.8401 20.2897 16.6076 20.1344 16.435C19.9585 16.2395 19.7032 16.0269 19.3278 15.9801C18.9524 15.9334 18.652 16.0767 18.4328 16.223C18.2392 16.3522 18.0298 16.5391 17.8197 16.7267C17.8099 16.7355 17.8001 16.7442 17.7902 16.753L15.8542 18.4802C15.5635 18.7395 15.5399 19.1833 15.8015 19.4715C16.0631 19.7596 16.5109 19.783 16.8016 19.5236L18.7377 17.7964C18.9272 17.6274 19.05 17.5191 19.1418 17.4474C19.213 17.5394 19.3049 17.6744 19.4463 17.8847L20.2926 19.143C20.2929 19.1434 20.2931 19.1438 20.2933 19.1441C20.3004 19.1546 20.3075 19.1652 20.3146 19.1757C20.4714 19.4089 20.6276 19.6414 20.7829 19.814C20.9588 20.0095 21.2141 20.2221 21.5895 20.2689C21.9649 20.3156 22.2653 20.1723 22.4845 20.026C22.6781 19.8968 22.8875 19.7099 23.0977 19.5223Z" fill="white"/>
</svg>
